<?xml version="1.0" encoding="utf-8"?>
<!-- Generator: Adobe Illustrator 16.0.4, SVG Export Plug-In . SVG Version: 6.00 Build 0)  -->
<!DOCTYPE svg PUBLIC "-//W3C//DTD SVG 1.1//EN" "http://www.w3.org/Graphics/SVG/1.1/DTD/svg11.dtd">
<svg version="1.1" id="Layer_1" xmlns="http://www.w3.org/2000/svg" xmlns:xlink="http://www.w3.org/1999/xlink" x="0px" y="0px"
	 width="900px" height="900px" viewBox="0 0 900 900" enable-background="new 0 0 900 900" xml:space="preserve">
<g>
	<path fill="#BC8871" d="M470.2,444.1c-8.5,2.601-40.3-0.1-40.5-0.199c-2.9,6.1-2.9,16.5-3,20.5c0,0-0.6,0.399,15.1,0
		c5.5-0.101,29.101,0.199,29.101,0.199S473.2,449.4,470.2,444.1"/>
	<g opacity="0.5">
		<defs>
			<rect id="SVGID_1_" x="459.9" y="452.6" opacity="0.5" width="1.6" height="1.5"/>
		</defs>
		<clipPath id="SVGID_2_">
			<use xlink:href="#SVGID_1_"  overflow="visible"/>
		</clipPath>
		<g clip-path="url(#SVGID_2_)">
			<defs>
				<rect id="SVGID_3_" x="459.9" y="452.6" width="1.6" height="1.5"/>
			</defs>
			<clipPath id="SVGID_4_">
				<use xlink:href="#SVGID_3_"  overflow="visible"/>
			</clipPath>
			<path clip-path="url(#SVGID_4_)" fill="#A67554" d="M459.9,453.3c0,0.4,0.3,0.8,0.699,0.8c0.4,0,0.801-0.3,0.801-0.699
				c0-0.4-0.301-0.801-0.7-0.801C460.2,452.6,459.9,452.9,459.9,453.3"/>
		</g>
	</g>
	<g opacity="0.5">
		<defs>
			<rect id="SVGID_5_" x="441.4" y="452.7" opacity="0.5" width="1.6" height="1.5"/>
		</defs>
		<clipPath id="SVGID_6_">
			<use xlink:href="#SVGID_5_"  overflow="visible"/>
		</clipPath>
		<g clip-path="url(#SVGID_6_)">
			<defs>
				<rect id="SVGID_7_" x="441.4" y="452.7" width="1.6" height="1.5"/>
			</defs>
			<clipPath id="SVGID_8_">
				<use xlink:href="#SVGID_7_"  overflow="visible"/>
			</clipPath>
			<path clip-path="url(#SVGID_8_)" fill="#A67554" d="M441.4,453.4c0,0.399,0.3,0.8,0.7,0.8s0.8-0.3,0.8-0.7s-0.3-0.8-0.7-0.8
				C441.7,452.7,441.4,453,441.4,453.4"/>
		</g>
	</g>
	<path fill="#BC8871" d="M479.2,438.4c-3.3,2.1-6.9,2.899-10.601,3.1c0,0-7.899,8-4.6,18.9c0.1,0-5,3.199-4.4,14.1
		c0,0.1,0-0.1,0-0.1c-8.3-2.4-7.3,2.899-4.6,3c1,0,2.2,0.3,2.2,0.3c0.5-0.3-3.3,2.6-3.5,3.5c-0.8,4,6.399-1.8,6.3-1.7
		c-0.9,0.7-5.5,4.4-4,5.9c1,1,2.7-0.801,3.8-1.5c1.2-0.801,3.7-1.7,3.601-1.601c-0.7,0.7-1.2,1.8-1.601,2.601
		c-0.3,0.699-1,1.899-0.6,2.699c1.2,1.801,4.7-3.8,5.6-4.6c0.2-0.1-0.399,1.4-0.1,2.6c0.399,1.7,2.3,0.2,3-0.5
		c3.8-3.8,1.7-7.6,1.899-7.8c1-1.2,7-4,6.801-14.3v-0.1C478.5,462.9,488.4,447.5,479.2,438.4"/>
	<path fill="#A67554" d="M470.1,484.1c-0.699,0.7-2.6,2.301-3,0.5c-0.3-1.199,0.301-2.699,0.101-2.6c-0.9,0.7-4.4,6.3-5.601,4.6
		c-0.399-0.8,2.4-4.8,3.101-5.6c0.1-0.1-3.3,1.1-4.5,1.8c-1.101,0.7-3.4,2.8-3.8,1.5c-0.301-0.899,2-3.399,3.6-4.899
		c-1.2,0.899-5.3,4.3-3.8,5.8c1,1,2.7-0.8,3.8-1.5c1.2-0.8,3.7-1.7,3.6-1.601c-0.699,0.7-1.199,1.7-1.6,2.601
		c-0.3,0.7-1,1.899-0.6,2.7c1.199,1.8,4.699-3.801,5.6-4.601c0.2-0.1-0.4,1.4-0.1,2.601c0.399,1.699,2.3,0.199,3-0.5
		c1.399-1.5,2-2.9,2.199-4.2C471.8,481.9,471.2,483,470.1,484.1"/>
	<path fill="#A67554" d="M461.2,478.4c0.1-0.101-7.101,5.1-7.2,2.399c-0.1,0.101-0.1,0.2-0.2,0.3c-0.8,3.601,5-0.699,6.101-1.5
		C460.5,479,461,478.6,461.2,478.4"/>
	<path fill="#E0B9A8" d="M453.8,481.1c0-0.199,0.3-0.6,0.7-1C454.2,480.5,453.9,480.8,453.8,481.1"/>
	<path fill="#A67554" d="M457.3,477.6c0.7-0.6,1.101-0.899,0.9-0.8c0,0-1,0.101-2.7-0.1c-1.4-0.2-2.4-1.3-2-2.101
		c-0.9,1,0.1,2.7,1.6,2.7C455.9,477.3,457,477.5,457.3,477.6"/>
	<path fill="#E0B9A8" d="M467,483c0,0,0,0.2-0.1,0.4C467,483.2,467,483,467,483"/>
	<path fill="#A67554" d="M479.2,438.4c-3.3,2.1-6.9,2.899-10.601,3.1c0,0-7.899,8-4.6,18.9c0.1,0-5.2,3.6-4.4,14.1
		c0.101-9.3,6.5-14,6.4-14.1c-3.3-10.9,3.7-14.801,4.6-15.7c0,0,5.101-1.601,8.5-3.7c7.9,7.7-1.899,21.9-1.899,21.9
		c0.5,7.6-1.7,13.699-12.4,12.1c-0.1,0,4.3,0.9,4.3,0.9c2.5,0.699,2.5,1.3,2.5,1.3c1-1.2,7-4,6.801-14.3V462.8
		C478.5,462.9,488.4,447.5,479.2,438.4"/>
	<path fill="#BC8871" d="M423.4,438.4c3.3,2.1,6.9,2.899,10.6,3.1c0,0,7.9,8,4.6,18.9c-0.1,0,5,3.199,4.4,14.1c0,0.1,0-0.1,0-0.1
		c8.3-2.4,7.3,2.899,4.6,3c-1,0-2.2,0.3-2.2,0.3c-0.5-0.3,3.3,2.6,3.5,3.5c0.8,4-6.4-1.8-6.3-1.7c0.9,0.7,5.5,4.4,4,5.9
		c-1,1-2.7-0.801-3.8-1.5c-1.2-0.801-3.7-1.7-3.6-1.601c0.7,0.7,1.2,1.8,1.6,2.601c0.3,0.699,1,1.899,0.6,2.699
		c-1.2,1.801-4.7-3.8-5.6-4.6c-0.2-0.1,0.4,1.4,0.1,2.6c-0.4,1.7-2.3,0.2-3-0.5c-3.8-3.8-1.7-7.6-1.9-7.8c-1-1.2-7-4-6.8-14.3v-0.1
		C424.2,462.9,414.3,447.5,423.4,438.4"/>
	<path fill="#A67554" d="M432.6,484.1c0.7,0.7,2.6,2.301,3,0.5c0.3-1.199-0.3-2.699-0.1-2.6c0.9,0.7,4.4,6.3,5.6,4.6
		c0.4-0.8-2.4-4.8-3.1-5.6c-0.1-0.1,3.3,1.1,4.5,1.8c1.1,0.7,3.4,2.8,3.8,1.5c0.3-0.899-2-3.399-3.6-4.899
		c1.2,0.899,5.3,4.3,3.8,5.8c-1,1-2.7-0.8-3.8-1.5c-1.2-0.8-3.7-1.7-3.6-1.601c0.7,0.7,1.2,1.7,1.6,2.601c0.3,0.7,1,1.899,0.6,2.7
		c-1.2,1.8-4.7-3.801-5.6-4.601c-0.2-0.1,0.4,1.4,0.1,2.601c-0.4,1.699-2.3,0.199-3-0.5c-1.4-1.5-2-2.9-2.2-4.2
		C430.9,481.9,431.5,483,432.6,484.1"/>
	<path fill="#A67554" d="M441.5,478.4c-0.1-0.101,7.1,5.1,7.2,2.399c0.1,0.101,0.1,0.2,0.2,0.3c0.8,3.601-5-0.699-6.1-1.5
		C442.2,479,441.7,478.6,441.5,478.4"/>
	<path fill="#E0B9A8" d="M448.8,481.1c0-0.199-0.3-0.6-0.7-1C448.5,480.5,448.8,480.8,448.8,481.1"/>
	<path fill="#A67554" d="M445.3,477.6c-0.7-0.6-1.1-0.899-0.9-0.8c0,0,1,0.101,2.7-0.1c1.4-0.2,2.4-1.3,2-2.101
		c0.9,1-0.1,2.7-1.6,2.7C446.7,477.3,445.7,477.5,445.3,477.6"/>
	<path fill="#E0B9A8" d="M435.7,483c0,0,0,0.2,0.1,0.4C435.7,483.2,435.7,483,435.7,483"/>
	<path fill="#A67554" d="M445.4,482c1.1,1.2,1.9,2.5,1.1,3.3C447.2,484.6,446.5,483.3,445.4,482"/>
	<path fill="#A67554" d="M423.4,438.4c3.3,2.1,6.9,2.899,10.6,3.1c0,0,7.9,8,4.6,18.9c-0.1,0,5.2,3.6,4.4,14.1
		c-0.1-9.3-6.5-14-6.4-14.1c3.3-10.9-3.7-14.801-4.6-15.7c0,0-5.1-1.601-8.5-3.7c-7.9,7.7,1.9,21.9,1.9,21.9
		c-0.5,7.6,1.7,13.699,12.4,12.1c0.1,0-4.3,0.9-4.3,0.9c-2.5,0.699-2.5,1.3-2.5,1.3c-1-1.2-7-4-6.8-14.3V462.8
		C424.2,462.9,414.3,447.5,423.4,438.4"/>
	<path fill="#F26A67" d="M451.8,429.1c2.5,0.301,4.2,2.801,3.9,5.7c-0.3,2.9-2.601,5-5.1,4.7c-2.5-0.3-4.201-2.8-3.9-5.7
		C447.1,431,449.4,428.9,451.8,429.1"/>
	<path fill="#781E17" d="M451.6,430.9c1.9,0.199,3.2,1.899,3,3.8c-0.199,1.899-1.899,3.3-3.8,3.1c-1.9-0.2-3.2-1.899-3-3.8
		C448,432.1,449.7,430.7,451.6,430.9"/>
	<path fill="#BC8871" d="M401.6,420.3c2.3,3.8,6.9,5.3,10.3,3.3s4.3-6.8,2-10.6c-2.3-3.8-6.9-5.3-10.3-3.2
		C400.2,411.7,399.3,416.4,401.6,420.3"/>
	<path fill="#966847" d="M405.9,418.9c-1.4-1.4-1.5-3.5-0.3-4.7c0.6-0.6,1.4-0.9,2.3-0.8c0.3,2.3,0.8,4.4,1.4,6.6
		C408.2,420.2,406.9,419.9,405.9,418.9"/>
	<path fill="#BC8871" d="M495,408.9c-0.9,24.1-21.1,42.9-45.1,42.1c-24.1-0.8-42.9-21.1-42.1-45.1c0.9-24.1,21.1-42.9,45.101-42.1
		C477,364.7,495.9,384.9,495,408.9"/>
	<path fill="#A67554" d="M449,449.6c-14.4-0.3-26.9-7.899-34.5-18.8c7.5,11.7,20.4,19.7,35.3,20.2c18.7,0.7,35.101-10.6,41.9-27
		C491.4,423.9,478.1,450.3,449,449.6"/>
	<path fill="#BC8871" d="M500.9,420.3c-2.301,3.8-6.9,5.3-10.301,3.3c-3.399-2-4.3-6.8-2-10.6c2.301-3.8,6.9-5.3,10.301-3.2
		C502.3,411.7,503.2,416.4,500.9,420.3"/>
	<path fill="#966847" d="M496.6,418.9c1.4-1.4,1.5-3.5,0.301-4.7c-0.601-0.6-1.4-0.9-2.301-0.8c-0.3,2.3-0.8,4.4-1.399,6.6
		C494.3,420.2,495.6,419.9,496.6,418.9"/>
	<path fill="#010101" d="M434.7,410c0,2.2-1.2,3.9-2.6,3.9s-2.6-1.8-2.6-4c0-2.2,1.2-3.9,2.6-3.9C433.6,406,434.7,407.8,434.7,410"
		/>
	<path fill="#010101" d="M473.2,410c0,2.2-1.2,3.9-2.601,3.9c-1.399,0-2.6-1.8-2.6-4c0-2.2,1.2-3.9,2.6-3.9
		C472.1,406,473.2,407.8,473.2,410"/>
	<g opacity="0.5">
		<defs>
			<rect id="SVGID_9_" x="422.8" y="416.1" opacity="0.5" width="11.2" height="6"/>
		</defs>
		<clipPath id="SVGID_10_">
			<use xlink:href="#SVGID_9_"  overflow="visible"/>
		</clipPath>
		<g clip-path="url(#SVGID_10_)">
			<defs>
				<rect id="SVGID_11_" x="422.8" y="416.1" width="11.2" height="6"/>
			</defs>
			<clipPath id="SVGID_12_">
				<use xlink:href="#SVGID_11_"  overflow="visible"/>
			</clipPath>
			<path clip-path="url(#SVGID_12_)" fill="#BD6272" d="M422.8,418.6c-0.2,1.6,2.2,3.2,5.3,3.5c3.1,0.301,5.7-0.8,5.9-2.399
				c0.2-1.6-2.2-3.2-5.3-3.5C425.5,415.9,422.9,416.9,422.8,418.6"/>
		</g>
	</g>
	<g opacity="0.5">
		<defs>
			<rect id="SVGID_13_" x="469.7" y="416.1" opacity="0.5" width="11.2" height="6"/>
		</defs>
		<clipPath id="SVGID_14_">
			<use xlink:href="#SVGID_13_"  overflow="visible"/>
		</clipPath>
		<g clip-path="url(#SVGID_14_)">
			<defs>
				<rect id="SVGID_15_" x="469.7" y="416.1" width="11.2" height="6"/>
			</defs>
			<clipPath id="SVGID_16_">
				<use xlink:href="#SVGID_15_"  overflow="visible"/>
			</clipPath>
			<path clip-path="url(#SVGID_16_)" fill="#BD6272" d="M469.7,418.6c-0.2,1.6,2.2,3.2,5.3,3.5c3.1,0.301,5.7-0.8,5.9-2.399
				c0.199-1.6-2.2-3.2-5.301-3.5C472.5,415.9,469.9,416.9,469.7,418.6"/>
		</g>
	</g>
	<path fill="#966847" d="M451.3,412.7c-1.7,0.8-3.6,2.1-4.2,3.9c-0.6,1.5,0.1,3.3,1.3,4.4c0.8,0.7,3.2,1.8,5.5,0.6
		C447.5,421.5,448.2,415.5,451.3,412.7"/>
	<g opacity="0.3">
		<defs>
			<rect id="SVGID_17_" x="427.6" y="398" opacity="0.3" width="7" height="2.8"/>
		</defs>
		<clipPath id="SVGID_18_">
			<use xlink:href="#SVGID_17_"  overflow="visible"/>
		</clipPath>
		<g clip-path="url(#SVGID_18_)">
			<defs>
				<rect id="SVGID_19_" x="427.6" y="398" width="7" height="2.8"/>
			</defs>
			<clipPath id="SVGID_20_">
				<use xlink:href="#SVGID_19_"  overflow="visible"/>
			</clipPath>
			<path clip-path="url(#SVGID_20_)" fill="#614B54" d="M434.5,400.1c-0.3,0.4-1.7-1.1-3.5-0.9c-1.9,0.3-3.1,1.9-3.4,1.6
				c-0.3,0,0.5-2.3,3.2-2.8C433.7,397.9,434.7,400.1,434.5,400.1"/>
		</g>
	</g>
	<g opacity="0.3">
		<defs>
			<rect id="SVGID_21_" x="467.9" y="398" opacity="0.3" width="7" height="2.6"/>
		</defs>
		<clipPath id="SVGID_22_">
			<use xlink:href="#SVGID_21_"  overflow="visible"/>
		</clipPath>
		<g clip-path="url(#SVGID_22_)">
			<defs>
				<rect id="SVGID_23_" x="467.9" y="398" width="7" height="2.6"/>
			</defs>
			<clipPath id="SVGID_24_">
				<use xlink:href="#SVGID_23_"  overflow="visible"/>
			</clipPath>
			<path clip-path="url(#SVGID_24_)" fill="#614B54" d="M467.9,400.4c0.3,0.3,1.6-1.2,3.5-1.2c1.899,0.1,3.199,1.7,3.5,1.4
				c0.3-0.1-0.601-2.3-3.4-2.6C468.6,398.1,467.7,400.4,467.9,400.4"/>
		</g>
	</g>
	<path fill="#C64E53" d="M450.101,429.5c-2.4,0.1-4.201,2.4-4.101,5.2s2.1,5,4.5,4.899c2.4-0.1,4.2-2.399,4.1-5.199
		C454.6,431.6,452.5,429.4,450.101,429.5"/>
	<path fill="#781E17" d="M450.2,431.2c-1.8,0.1-3.2,1.6-3.2,3.399c0.1,1.801,1.6,3.301,3.4,3.2c1.8-0.1,3.199-1.6,3.199-3.399
		C453.6,432.6,452,431.1,450.2,431.2"/>
	<path fill="#523F37" d="M446.1,371.8c-3-2.3-4-5.1-4.2-7.3c-0.2-2.1-1.6-4.3-3.6-4c-2.2,0.3-2.3,3.8,0,3.3c0.1,0-0.4-0.1-0.4-0.1
		c-0.4-0.1-0.8-0.6-0.7-1c0-0.4,0.3-0.8,0.7-0.9c0.6-0.3,1.5,0.1,1.8,0.6c0.3,0.4,0.5,1.1,0.5,1.6c0,1.5,2,7.6,7.6,9
		C447.1,372.7,446.7,372.2,446.1,371.8"/>
	<path fill="#352921" d="M440.1,359.2c-0.6-0.1-1.1-0.4-1.2-1.1c0-0.5,0.1-1.1,0.4-1.5c0.9-1.2,2.9-1.9,4.3-1.5
		c3.7,1.2,2.4,6.2,2.1,9.2c-0.1,1.2,0,2.6,0.5,3.8c0.8,1.7,2.2,2.9,3.8,3.7c-1-1.7-1.8-3.3-1.6-5.3c1-10.5-2.1-12.2-4.4-13
		c-2.4-0.9-4.9,0.1-5.8,2.5c-0.2,1.1-0.2,2.3,0.8,3.1C439.5,359.5,440.4,359.3,440.1,359.2"/>
	<path fill="#0C090B" d="M443.7,353.4c2.2,0.8,5.8,2.6,4.4,13c-0.4,3.2,2.1,5.6,2.3,5.7c-1.101-1.8-2-3.4-1.7-5.6
		c1-10.5-2.1-12.2-4.4-13c-0.3-0.1-0.6-0.2-0.9-0.2C443.4,353.3,443.5,353.3,443.7,353.4"/>
	<path fill="#0C090B" d="M442,364.1c0,0-0.9,7.1,5.5,8.8C447.5,372.9,443.5,372.1,442,364.1"/>
	<path fill="#523F37" d="M452.4,371.2c-0.601-3.8,0.6-6.4,1.899-8.2c1.3-1.7,1.7-4.2,0.101-5.4c-1.801-1.3-4.3,1.2-2.301,2.4
		c0.101,0-0.199-0.3-0.199-0.4c-0.2-0.3-0.101-1,0.199-1.2c0.301-0.2,0.801-0.3,1.101-0.2c0.6,0.2,1,1.1,0.899,1.7
		c-0.1,0.5-0.399,1.1-0.699,1.5c-1,1.1-3.7,6.9-0.5,11.7C452.5,372.6,452.5,371.9,452.4,371.2"/>
	<path fill="#0C090B" d="M454.6,362.8c0,0-5.5,4.6-1.899,10.2C452.6,372.9,450.3,369.7,454.6,362.8"/>
</g>
<polyline fill="#C69C6D" points="382.282,598.706 373.667,641 530.333,641 524,598.489 451.787,462.405 "/>
<path fill="#C69C6D" d="M595,373.098"/>
<path fill="#C69C6D" d="M572,565"/>
<path fill="#C69C6D" d="M345,422.132"/>
<path fill="#966847" d="M639,503"/>
<path fill="#C69C6D" d="M273.331,242.336c7.519,0.396,11.83,0.122,20.667-0.667c19.793-1.766,38.349-2.189,43.667,9.333
	c7.691,16.667-9.022,32.272-11.333,57c-3.333,35.667-1,55.566,10,74.667c12.1,21.011,20.002,38.147,15.951,67.382
	c-5.951,42.951-4.284,43.951-4.284,43.951s3.333,3.744,15.666-3c21.334-11.666,20.278-10.043,30.823-14.849
	c12.296-5.604,28.312-11.557,52.339-13.508c3.06-0.248,4.652-1.312,4.652-1.312L448.45,573
	c-8.323,3.567-56.034,17.075-93.785,20.668c-43.658,4.156-44.247-4.477-54.748-6.588c-26.918-5.412-27.688-47.258-30.252-76.745
	c-1.438-16.527,3.395-43.218,6.668-70.001c2.567-21.002,2.896-42.606,5.181-59.563c4.414-32.763,1.819-97.103-32.848-110.437
	c-33.59-12.919,0.667,3.333-27.898-12.758c-15.698-8.843-10.771-20.305-2.771-18.24c4.739,1.223,8.333,2,8.333,2s6.872-4,20.333-4
	C264.613,237.336,248.972,241.054,273.331,242.336z"/>
<path fill="#966847" d="M346.998,494.42c-0.349,0.79-0.688,16.278,1.002,27.329c1.474,9.636,4.939,15.028,5.48,15.56
	c0.495,0.466-1.333-3.6-3.313-16.56c-1.844-12.067-1.057-25.727-0.914-25.795"/>
<path fill="#966847" d="M274.667,249.75c-1.514,0.283-17.891-9.415-17.891-9.415s4.598,3.87,13.391,8.415"/>
<path fill="#65B1EF" d="M469.081,380.407c0,1.728-1.392,3.12-3.12,3.12c-1.711,0-3.103-1.392-3.103-3.12s3.103-7.077,3.103-7.077
	S469.081,378.679,469.081,380.407z"/>
<path fill="#65B1EF" d="M480.243,392.022c0,2.236-1.804,4.039-4.039,4.039c-2.214,0-4.017-1.803-4.017-4.039
	c0-2.237,4.017-9.162,4.017-9.162S480.243,389.787,480.243,392.022z"/>
<path fill="#FFFFFF" stroke="#000000" stroke-miterlimit="10" d="M321.333,383.526"/>
<path fill="#C69C6D" d="M614,325.667"/>
<path fill="#966847" d="M414.672,468.492c0.071,0.034,1.255,25.092-4.172,49.389s-5.428,24.297-9.5,40.369
	c-3.22,12.709-12.697,30.524-12.203,30.059c0.541-0.531,7.229-4.923,8.703-14.559c0.032-0.207,7.717-20.072,11.5-38
	c6.273-29.731,7.041-67.111,6.828-67.595"/>
<path fill="#C69C6D" d="M629.627,242.336c-7.52,0.396-11.83,0.122-20.668-0.667c-19.793-1.766-38.348-2.189-43.666,9.333
	c-7.691,16.667,9.022,32.272,11.334,57c3.332,35.667,0.999,55.566-10.001,74.667c-12.1,21.011-20.002,38.147-15.951,67.382
	c5.951,42.951,4.284,43.951,4.284,43.951s-3.333,3.744-15.666-3c-21.334-11.666-20.278-10.043-30.823-14.849
	c-12.296-5.604-28.312-11.557-52.339-13.508c-3.06-0.248-4.652-1.312-4.652-1.312L454.507,573
	c8.323,3.567,56.034,17.075,93.785,20.668c43.658,4.156,44.247-4.477,54.748-6.588c26.919-5.412,27.688-47.258,30.252-76.745
	c1.438-16.527-3.396-43.218-6.669-70.001c-2.566-21.002-2.896-42.606-5.18-59.563c-4.414-32.763-1.819-97.103,32.848-110.437
	c33.59-12.919-0.667,3.333,27.897-12.758c15.698-8.843,10.771-20.305,2.771-18.24c-4.738,1.223-8.332,2-8.332,2s-6.872-4-20.334-4
	C638.344,237.336,653.985,241.054,629.627,242.336z"/>
<path fill="#966847" d="M555.959,496.42c0.349,0.79,0.688,16.278-1.002,27.329c-1.474,9.636-4.939,15.028-5.48,15.56
	c-0.494,0.466,1.333-3.6,3.314-16.56c1.844-12.067,1.057-25.727,0.914-25.795"/>
<path fill="#966847" d="M628.291,251.75c1.514,0.283,17.891-9.415,17.891-9.415s-4.598,3.87-13.391,8.415"/>
<path fill="#966847" d="M457.463,528.334c4.037,2.365,9.438-8.5,9.438-8.5s-6.041,22.176-15.422,3.166
	c-8.73-17.7-1.392-3.414-0.812-3.5"/>
<path fill="#C6E3E5" d="M323.667,630L339,556.334l5.998-61.914c0,0,18.941-8.031,41.479-16.062
	c22.539-8.03,48.674-16.062,63.062-16.062c40.161,0,103.42,31.706,103.42,31.706l8.374,54.34L585.667,633"/>
<path fill="#C69C6D" d="M818.333,624.334"/>
<path fill="#C69C6D" d="M497.73,688.334"/>
<path fill="#C69C6D" d="M604.333,661"/>
<path fill="#C6E3E5" d="M842.333,585"/>
</svg>
