<?xml version="1.0" encoding="utf-8"?>
<!-- Generator: Adobe Illustrator 16.0.4, SVG Export Plug-In . SVG Version: 6.00 Build 0)  -->
<!DOCTYPE svg PUBLIC "-//W3C//DTD SVG 1.1//EN" "http://www.w3.org/Graphics/SVG/1.1/DTD/svg11.dtd">
<svg version="1.1" id="Layer_1" xmlns="http://www.w3.org/2000/svg" xmlns:xlink="http://www.w3.org/1999/xlink" x="0px" y="0px"
	 width="483px" height="387.259px" viewBox="0 0 483 387.259" enable-background="new 0 0 483 387.259" xml:space="preserve">
<g>
	<g>
		<path fill="#BC8871" d="M261.722,188.764c-8.5,2.601-40.3-0.1-40.5-0.199c-2.9,6.1-2.9,16.5-3,20.5c0,0-0.6,0.399,15.1,0
			c5.5-0.101,29.101,0.199,29.101,0.199S264.722,194.064,261.722,188.764"/>
		<g opacity="0.5">
			<defs>
				<rect id="SVGID_1_" x="251.422" y="197.264" opacity="0.5" width="1.6" height="1.5"/>
			</defs>
			<clipPath id="SVGID_2_">
				<use xlink:href="#SVGID_1_"  overflow="visible"/>
			</clipPath>
			<g clip-path="url(#SVGID_2_)">
				<defs>
					<rect id="SVGID_3_" x="251.422" y="197.264" width="1.6" height="1.5"/>
				</defs>
				<clipPath id="SVGID_4_">
					<use xlink:href="#SVGID_3_"  overflow="visible"/>
				</clipPath>
				<path clip-path="url(#SVGID_4_)" fill="#A67554" d="M251.422,197.964c0,0.4,0.3,0.8,0.699,0.8c0.4,0,0.801-0.3,0.801-0.699
					c0-0.4-0.301-0.801-0.7-0.801C251.722,197.264,251.422,197.564,251.422,197.964"/>
			</g>
		</g>
		<g opacity="0.5">
			<defs>
				<rect id="SVGID_5_" x="232.922" y="197.364" opacity="0.5" width="1.6" height="1.5"/>
			</defs>
			<clipPath id="SVGID_6_">
				<use xlink:href="#SVGID_5_"  overflow="visible"/>
			</clipPath>
			<g clip-path="url(#SVGID_6_)">
				<defs>
					<rect id="SVGID_7_" x="232.922" y="197.364" width="1.6" height="1.5"/>
				</defs>
				<clipPath id="SVGID_8_">
					<use xlink:href="#SVGID_7_"  overflow="visible"/>
				</clipPath>
				<path clip-path="url(#SVGID_8_)" fill="#A67554" d="M232.922,198.064c0,0.399,0.3,0.8,0.7,0.8s0.8-0.3,0.8-0.7s-0.3-0.8-0.7-0.8
					C233.222,197.364,232.922,197.664,232.922,198.064"/>
			</g>
		</g>
		<path fill="#BC8871" d="M270.722,183.064c-3.3,2.1-6.9,2.899-10.601,3.1c0,0-7.899,8-4.6,18.9c0.1,0-5,3.199-4.4,14.1
			c0,0.1,0-0.1,0-0.1c-8.3-2.4-7.3,2.899-4.6,3c1,0,2.2,0.3,2.2,0.3c0.5-0.3-3.3,2.6-3.5,3.5c-0.8,4,6.399-1.8,6.3-1.7
			c-0.9,0.7-5.5,4.4-4,5.9c1,1,2.7-0.801,3.8-1.5c1.2-0.801,3.7-1.7,3.601-1.601c-0.7,0.7-1.2,1.8-1.601,2.601
			c-0.3,0.699-1,1.899-0.6,2.699c1.2,1.801,4.7-3.8,5.6-4.6c0.2-0.1-0.399,1.4-0.1,2.6c0.399,1.7,2.3,0.2,3-0.5
			c3.8-3.8,1.7-7.6,1.899-7.8c1-1.2,7-4,6.801-14.3v-0.1C270.022,207.564,279.922,192.164,270.722,183.064"/>
		<path fill="#A67554" d="M261.622,228.764c-0.699,0.7-2.6,2.301-3,0.5c-0.3-1.199,0.301-2.699,0.101-2.6
			c-0.9,0.7-4.4,6.3-5.601,4.6c-0.399-0.8,2.4-4.8,3.101-5.6c0.1-0.1-3.3,1.1-4.5,1.8c-1.101,0.7-3.4,2.8-3.8,1.5
			c-0.301-0.899,2-3.399,3.6-4.899c-1.2,0.899-5.3,4.3-3.8,5.8c1,1,2.7-0.8,3.8-1.5c1.2-0.8,3.7-1.7,3.6-1.601
			c-0.699,0.7-1.199,1.7-1.6,2.601c-0.3,0.7-1,1.899-0.6,2.7c1.199,1.8,4.699-3.801,5.6-4.601c0.2-0.1-0.4,1.4-0.1,2.601
			c0.399,1.699,2.3,0.199,3-0.5c1.399-1.5,2-2.9,2.199-4.2C263.322,226.564,262.722,227.664,261.622,228.764"/>
		<path fill="#A67554" d="M252.722,223.064c0.1-0.101-7.101,5.1-7.2,2.399c-0.1,0.101-0.1,0.2-0.2,0.3c-0.8,3.601,5-0.699,6.101-1.5
			C252.022,223.664,252.522,223.264,252.722,223.064"/>
		<path fill="#E0B9A8" d="M245.322,225.764c0-0.199,0.3-0.6,0.7-1C245.722,225.164,245.422,225.464,245.322,225.764"/>
		<path fill="#A67554" d="M248.822,222.264c0.7-0.6,1.101-0.899,0.9-0.8c0,0-1,0.101-2.7-0.1c-1.4-0.2-2.4-1.3-2-2.101
			c-0.9,1,0.1,2.7,1.6,2.7C247.422,221.964,248.522,222.164,248.822,222.264"/>
		<path fill="#E0B9A8" d="M258.522,227.664c0,0,0,0.2-0.1,0.4C258.522,227.864,258.522,227.664,258.522,227.664"/>
		<path fill="#A67554" d="M270.722,183.064c-3.3,2.1-6.9,2.899-10.601,3.1c0,0-7.899,8-4.6,18.9c0.1,0-5.2,3.6-4.4,14.1
			c0.101-9.3,6.5-14,6.4-14.1c-3.3-10.9,3.7-14.801,4.6-15.7c0,0,5.101-1.601,8.5-3.7c7.9,7.7-1.899,21.9-1.899,21.9
			c0.5,7.6-1.7,13.699-12.4,12.1c-0.1,0,4.3,0.9,4.3,0.9c2.5,0.699,2.5,1.3,2.5,1.3c1-1.2,7-4,6.801-14.3v-0.101
			C270.022,207.564,279.922,192.164,270.722,183.064"/>
		<path fill="#BC8871" d="M214.922,183.064c3.3,2.1,6.9,2.899,10.6,3.1c0,0,7.9,8,4.6,18.9c-0.1,0,5,3.199,4.4,14.1
			c0,0.1,0-0.1,0-0.1c8.3-2.4,7.3,2.899,4.6,3c-1,0-2.2,0.3-2.2,0.3c-0.5-0.3,3.3,2.6,3.5,3.5c0.8,4-6.4-1.8-6.3-1.7
			c0.9,0.7,5.5,4.4,4,5.9c-1,1-2.7-0.801-3.8-1.5c-1.2-0.801-3.7-1.7-3.6-1.601c0.7,0.7,1.2,1.8,1.6,2.601
			c0.3,0.699,1,1.899,0.6,2.699c-1.2,1.801-4.7-3.8-5.6-4.6c-0.2-0.1,0.4,1.4,0.1,2.6c-0.4,1.7-2.3,0.2-3-0.5
			c-3.8-3.8-1.7-7.6-1.9-7.8c-1-1.2-7-4-6.8-14.3v-0.1C215.722,207.564,205.822,192.164,214.922,183.064"/>
		<path fill="#A67554" d="M224.122,228.764c0.7,0.7,2.6,2.301,3,0.5c0.3-1.199-0.3-2.699-0.1-2.6c0.9,0.7,4.4,6.3,5.6,4.6
			c0.4-0.8-2.4-4.8-3.1-5.6c-0.1-0.1,3.3,1.1,4.5,1.8c1.1,0.7,3.4,2.8,3.8,1.5c0.3-0.899-2-3.399-3.6-4.899
			c1.2,0.899,5.3,4.3,3.8,5.8c-1,1-2.7-0.8-3.8-1.5c-1.2-0.8-3.7-1.7-3.6-1.601c0.7,0.7,1.2,1.7,1.6,2.601c0.3,0.7,1,1.899,0.6,2.7
			c-1.2,1.8-4.7-3.801-5.6-4.601c-0.2-0.1,0.4,1.4,0.1,2.601c-0.4,1.699-2.3,0.199-3-0.5c-1.4-1.5-2-2.9-2.2-4.2
			C222.422,226.564,223.022,227.664,224.122,228.764"/>
		<path fill="#A67554" d="M233.022,223.064c-0.1-0.101,7.1,5.1,7.2,2.399c0.1,0.101,0.1,0.2,0.2,0.3c0.8,3.601-5-0.699-6.1-1.5
			C233.722,223.664,233.222,223.264,233.022,223.064"/>
		<path fill="#E0B9A8" d="M240.322,225.764c0-0.199-0.3-0.6-0.7-1C240.022,225.164,240.322,225.464,240.322,225.764"/>
		<path fill="#A67554" d="M236.822,222.264c-0.7-0.6-1.1-0.899-0.9-0.8c0,0,1,0.101,2.7-0.1c1.4-0.2,2.4-1.3,2-2.101
			c0.9,1-0.1,2.7-1.6,2.7C238.222,221.964,237.222,222.164,236.822,222.264"/>
		<path fill="#E0B9A8" d="M227.222,227.664c0,0,0,0.2,0.1,0.4C227.222,227.864,227.222,227.664,227.222,227.664"/>
		<path fill="#A67554" d="M236.922,226.664c1.1,1.2,1.9,2.5,1.1,3.3C238.722,229.264,238.022,227.964,236.922,226.664"/>
		<path fill="#A67554" d="M214.922,183.064c3.3,2.1,6.9,2.899,10.6,3.1c0,0,7.9,8,4.6,18.9c-0.1,0,5.2,3.6,4.4,14.1
			c-0.1-9.3-6.5-14-6.4-14.1c3.3-10.9-3.7-14.801-4.6-15.7c0,0-5.1-1.601-8.5-3.7c-7.9,7.7,1.9,21.9,1.9,21.9
			c-0.5,7.6,1.7,13.699,12.4,12.1c0.1,0-4.3,0.9-4.3,0.9c-2.5,0.699-2.5,1.3-2.5,1.3c-1-1.2-7-4-6.8-14.3v-0.101
			C215.722,207.564,205.822,192.164,214.922,183.064"/>
		<path fill="#F26A67" d="M243.322,173.764c2.5,0.301,4.2,2.801,3.9,5.7c-0.3,2.9-2.601,5-5.1,4.7c-2.5-0.3-4.201-2.8-3.9-5.7
			C238.622,175.664,240.922,173.564,243.322,173.764"/>
		<path fill="#781E17" d="M243.122,175.564c1.9,0.199,3.2,1.899,3,3.8c-0.199,1.899-1.899,3.3-3.8,3.1c-1.9-0.2-3.2-1.899-3-3.8
			C239.522,176.764,241.222,175.364,243.122,175.564"/>
		<path fill="#BC8871" d="M193.122,164.964c2.3,3.8,6.9,5.3,10.3,3.3s4.3-6.8,2-10.6c-2.3-3.8-6.9-5.3-10.3-3.2
			C191.722,156.364,190.822,161.064,193.122,164.964"/>
		<path fill="#966847" d="M197.422,163.564c-1.4-1.4-1.5-3.5-0.3-4.7c0.6-0.6,1.4-0.9,2.3-0.8c0.3,2.3,0.8,4.4,1.4,6.6
			C199.722,164.864,198.422,164.564,197.422,163.564"/>
		<path fill="#BC8871" d="M286.522,153.564c-0.9,24.1-21.1,42.9-45.1,42.1c-24.1-0.8-42.9-21.1-42.1-45.1
			c0.9-24.1,21.1-42.9,45.101-42.1C268.522,109.364,287.422,129.564,286.522,153.564"/>
		<path fill="#A67554" d="M240.522,194.264c-14.4-0.3-26.9-7.899-34.5-18.8c7.5,11.7,20.4,19.7,35.3,20.2
			c18.7,0.7,35.101-10.6,41.9-27C282.922,168.564,269.622,194.964,240.522,194.264"/>
		<path fill="#BC8871" d="M292.422,164.964c-2.301,3.8-6.9,5.3-10.301,3.3c-3.399-2-4.3-6.8-2-10.6c2.301-3.8,6.9-5.3,10.301-3.2
			C293.822,156.364,294.722,161.064,292.422,164.964"/>
		<path fill="#966847" d="M288.122,163.564c1.4-1.4,1.5-3.5,0.301-4.7c-0.601-0.6-1.4-0.9-2.301-0.8c-0.3,2.3-0.8,4.4-1.399,6.6
			C285.822,164.864,287.122,164.564,288.122,163.564"/>
		<path fill="#010101" d="M226.222,154.664c0,2.2-1.2,3.9-2.6,3.9s-2.6-1.8-2.6-4c0-2.2,1.2-3.9,2.6-3.9
			C225.122,150.664,226.222,152.464,226.222,154.664"/>
		<path fill="#010101" d="M264.722,154.664c0,2.2-1.2,3.9-2.601,3.9c-1.399,0-2.6-1.8-2.6-4c0-2.2,1.2-3.9,2.6-3.9
			C263.622,150.664,264.722,152.464,264.722,154.664"/>
		<g opacity="0.5">
			<defs>
				<rect id="SVGID_9_" x="214.322" y="160.764" opacity="0.5" width="11.2" height="6"/>
			</defs>
			<clipPath id="SVGID_10_">
				<use xlink:href="#SVGID_9_"  overflow="visible"/>
			</clipPath>
			<g clip-path="url(#SVGID_10_)">
				<defs>
					<rect id="SVGID_11_" x="214.322" y="160.764" width="11.2" height="6"/>
				</defs>
				<clipPath id="SVGID_12_">
					<use xlink:href="#SVGID_11_"  overflow="visible"/>
				</clipPath>
				<path clip-path="url(#SVGID_12_)" fill="#BD6272" d="M214.322,163.264c-0.2,1.6,2.2,3.2,5.3,3.5c3.1,0.301,5.7-0.8,5.9-2.399
					c0.2-1.6-2.2-3.2-5.3-3.5C217.022,160.564,214.422,161.564,214.322,163.264"/>
			</g>
		</g>
		<g opacity="0.5">
			<defs>
				<rect id="SVGID_13_" x="261.222" y="160.764" opacity="0.5" width="11.2" height="6"/>
			</defs>
			<clipPath id="SVGID_14_">
				<use xlink:href="#SVGID_13_"  overflow="visible"/>
			</clipPath>
			<g clip-path="url(#SVGID_14_)">
				<defs>
					<rect id="SVGID_15_" x="261.222" y="160.764" width="11.2" height="6"/>
				</defs>
				<clipPath id="SVGID_16_">
					<use xlink:href="#SVGID_15_"  overflow="visible"/>
				</clipPath>
				<path clip-path="url(#SVGID_16_)" fill="#BD6272" d="M261.222,163.264c-0.2,1.6,2.2,3.2,5.3,3.5c3.1,0.301,5.7-0.8,5.9-2.399
					c0.199-1.6-2.2-3.2-5.301-3.5C264.022,160.564,261.422,161.564,261.222,163.264"/>
			</g>
		</g>
		<path fill="#966847" d="M242.822,157.364c-1.7,0.8-3.6,2.1-4.2,3.9c-0.6,1.5,0.1,3.3,1.3,4.4c0.8,0.7,3.2,1.8,5.5,0.6
			C239.022,166.164,239.722,160.164,242.822,157.364"/>
		<g opacity="0.3">
			<defs>
				<rect id="SVGID_17_" x="219.122" y="142.664" opacity="0.3" width="7" height="2.8"/>
			</defs>
			<clipPath id="SVGID_18_">
				<use xlink:href="#SVGID_17_"  overflow="visible"/>
			</clipPath>
			<g clip-path="url(#SVGID_18_)">
				<defs>
					<rect id="SVGID_19_" x="219.122" y="142.664" width="7" height="2.8"/>
				</defs>
				<clipPath id="SVGID_20_">
					<use xlink:href="#SVGID_19_"  overflow="visible"/>
				</clipPath>
				<path clip-path="url(#SVGID_20_)" fill="#614B54" d="M226.022,144.764c-0.3,0.4-1.7-1.1-3.5-0.9c-1.9,0.3-3.1,1.9-3.4,1.6
					c-0.3,0,0.5-2.3,3.2-2.8C225.222,142.564,226.222,144.764,226.022,144.764"/>
			</g>
		</g>
		<g opacity="0.3">
			<defs>
				<rect id="SVGID_21_" x="259.422" y="142.664" opacity="0.3" width="7" height="2.6"/>
			</defs>
			<clipPath id="SVGID_22_">
				<use xlink:href="#SVGID_21_"  overflow="visible"/>
			</clipPath>
			<g clip-path="url(#SVGID_22_)">
				<defs>
					<rect id="SVGID_23_" x="259.422" y="142.664" width="7" height="2.6"/>
				</defs>
				<clipPath id="SVGID_24_">
					<use xlink:href="#SVGID_23_"  overflow="visible"/>
				</clipPath>
				<path clip-path="url(#SVGID_24_)" fill="#614B54" d="M259.422,145.064c0.3,0.3,1.6-1.2,3.5-1.2c1.899,0.1,3.199,1.7,3.5,1.4
					c0.3-0.1-0.601-2.3-3.4-2.6C260.122,142.764,259.222,145.064,259.422,145.064"/>
			</g>
		</g>
		<path fill="#C64E53" d="M241.623,174.164c-2.4,0.1-4.201,2.4-4.101,5.2s2.1,5,4.5,4.899c2.4-0.1,4.2-2.399,4.1-5.199
			C246.122,176.264,244.022,174.064,241.623,174.164"/>
		<path fill="#781E17" d="M241.722,175.864c-1.8,0.1-3.2,1.6-3.2,3.399c0.1,1.801,1.6,3.301,3.4,3.2c1.8-0.1,3.199-1.6,3.199-3.399
			C245.122,177.264,243.522,175.764,241.722,175.864"/>
		<path fill="#523F37" d="M237.622,116.464c-3-2.3-4-5.1-4.2-7.3c-0.2-2.1-1.6-4.3-3.6-4c-2.2,0.3-2.3,3.8,0,3.3
			c0.1,0-0.4-0.1-0.4-0.1c-0.4-0.1-0.8-0.6-0.7-1c0-0.4,0.3-0.8,0.7-0.9c0.6-0.3,1.5,0.1,1.8,0.6c0.3,0.4,0.5,1.1,0.5,1.6
			c0,1.5,2,7.6,7.6,9C238.622,117.364,238.222,116.864,237.622,116.464"/>
		<path fill="#352921" d="M231.622,103.864c-0.6-0.1-1.1-0.4-1.2-1.1c0-0.5,0.1-1.1,0.4-1.5c0.9-1.2,2.9-1.9,4.3-1.5
			c3.7,1.2,2.4,6.2,2.1,9.2c-0.1,1.2,0,2.6,0.5,3.8c0.8,1.7,2.2,2.9,3.8,3.7c-1-1.7-1.8-3.3-1.6-5.3c1-10.5-2.1-12.2-4.4-13
			c-2.4-0.9-4.9,0.1-5.8,2.5c-0.2,1.1-0.2,2.3,0.8,3.1C231.022,104.164,231.922,103.964,231.622,103.864"/>
		<path fill="#0C090B" d="M235.222,98.064c2.2,0.8,5.8,2.6,4.4,13c-0.4,3.2,2.1,5.6,2.3,5.7c-1.101-1.8-2-3.4-1.7-5.6
			c1-10.5-2.1-12.2-4.4-13c-0.3-0.1-0.6-0.2-0.9-0.2C234.922,97.964,235.022,97.964,235.222,98.064"/>
		<path fill="#0C090B" d="M233.522,108.764c0,0-0.9,7.1,5.5,8.8C239.022,117.564,235.022,116.764,233.522,108.764"/>
		<path fill="#523F37" d="M243.922,115.864c-0.601-3.8,0.6-6.4,1.899-8.2c1.3-1.7,1.7-4.2,0.101-5.4c-1.801-1.3-4.3,1.2-2.301,2.4
			c0.101,0-0.199-0.3-0.199-0.4c-0.2-0.3-0.101-1,0.199-1.2c0.301-0.2,0.801-0.3,1.101-0.2c0.6,0.2,1,1.1,0.899,1.7
			c-0.1,0.5-0.399,1.1-0.699,1.5c-1,1.1-3.7,6.9-0.5,11.7C244.022,117.264,244.022,116.564,243.922,115.864"/>
		<path fill="#0C090B" d="M246.122,107.464c0,0-5.5,4.6-1.899,10.2C244.122,117.564,241.822,114.364,246.122,107.464"/>
	</g>
	<path fill="#C69C6D" d="M173.804,343.153c0,0,1.563,40.28,17.718,40.511c8.952,0.127,97.691,3.517,110.666,0.011
		c12.48-3.372,12.837-40.521,12.837-40.521l-71.964-136.192"/>
	<path fill="#C69C6D" d="M386.522,117.762"/>
	<path fill="#C69C6D" d="M363.522,309.664"/>
	<path fill="#C69C6D" d="M136.522,166.796"/>
	<path fill="#966847" d="M430.522,247.664"/>
	<g>
		<path fill="#C69C6D" d="M64.853-13c7.519,0.396,11.83,0.122,20.667-0.667c19.793-1.766,38.349-2.189,43.667,9.333
			c7.691,16.667-9.022,32.272-11.333,57c-3.333,35.667-1,55.566,10,74.667c12.1,21.011,20.002,38.147,15.951,67.382
			c-5.951,42.951-4.284,43.951-4.284,43.951s3.333,3.744,15.666-3c21.334-11.666,20.278-10.043,30.823-14.849
			c12.296-5.604,28.312-11.557,52.339-13.508c3.06-0.248,4.652-1.312,4.652-1.312l-3.028,111.666
			c-8.323,3.567-56.034,17.075-93.785,20.668c-43.658,4.156-44.247-4.477-54.748-6.588c-26.918-5.412-27.688-47.258-30.252-76.745
			c-1.438-16.527,3.395-43.218,6.668-70.001c2.567-21.002,2.896-42.606,5.181-59.563c4.414-32.763,1.819-97.103-32.848-110.437
			C6.599,2.079,40.855,18.332,12.291,2.24C-3.407-6.604,1.52-18.065,9.52-16c4.739,1.223,8.333,2,8.333,2s6.872-4,20.333-4
			C56.135-18,40.494-14.282,64.853-13z"/>
		<path fill="#966847" d="M137.52,256.667c-0.349,0.79-0.688,16.278,1.002,27.329c1.474,9.636,4.939,15.028,5.48,15.56
			c0.495,0.466-1.333-3.6-3.313-16.56c-1.844-12.067-1.057-25.727-0.914-25.795"/>
		<path fill="#966847" d="M65.188,11.998c-1.514,0.283-17.891-9.415-17.891-9.415s4.598,3.87,13.391,8.415"/>
	</g>
	<path fill="#65B1EF" d="M260.603,125.071c0,1.728-1.392,3.12-3.12,3.12c-1.711,0-3.103-1.392-3.103-3.12s3.103-7.077,3.103-7.077
		S260.603,123.343,260.603,125.071z"/>
	<path fill="#65B1EF" d="M271.765,136.686c0,2.236-1.804,4.039-4.039,4.039c-2.214,0-4.017-1.803-4.017-4.039
		c0-2.237,4.017-9.162,4.017-9.162S271.765,134.451,271.765,136.686z"/>
	<path fill="#FFFFFF" stroke="#000000" stroke-miterlimit="10" d="M112.855,128.19"/>
	<path fill="#C69C6D" d="M405.522,70.331"/>
	<g>
		<path fill="#966847" d="M346.481,258.667c0.349,0.79,0.688,16.278-1.002,27.329c-1.474,9.636-4.939,15.028-5.48,15.56
			c-0.494,0.466,1.333-3.6,3.314-16.56c1.844-12.067,1.057-25.727,0.914-25.795"/>
		<path fill="#966847" d="M418.813,13.998c1.514,0.283,17.891-9.415,17.891-9.415s-4.598,3.87-13.391,8.415"/>
	</g>
</g>
<path fill="#C69C6D" d="M421.149-13c-7.52,0.396-11.83,0.122-20.668-0.667c-19.793-1.766-38.348-2.189-43.666,9.333
	c-7.691,16.667,9.022,32.272,11.334,57c3.332,35.667,0.999,55.566-10.001,74.667c-12.1,21.011-20.002,38.147-15.951,67.382
	c5.951,42.951,4.284,43.951,4.284,43.951s-3.333,3.744-15.666-3c-21.334-11.666-20.278-10.043-30.823-14.849
	c-12.296-5.604-28.312-11.557-52.339-13.508c-3.06-0.248-4.652-1.312-4.652-1.312l3.028,111.666
	c8.323,3.567,56.034,17.075,93.785,20.668c43.658,4.156,44.247-4.477,54.748-6.588c26.919-5.412,27.688-47.258,30.252-76.745
	c1.438-16.527-3.396-43.218-6.669-70.001c-2.566-21.002-2.896-42.606-5.18-59.563c-4.414-32.763-1.819-97.103,32.848-110.437
	c33.59-12.919-0.667,3.333,27.897-12.758c15.698-8.843,10.771-20.305,2.771-18.24c-4.738,1.223-8.332,2-8.332,2s-6.872-4-20.334-4
	C429.866-18,445.507-14.282,421.149-13z"/>
</svg>
