<?xml version="1.0" standalone="no"?>
<!DOCTYPE svg PUBLIC "-//W3C//DTD SVG 20010904//EN"
 "http://www.w3.org/TR/2001/REC-SVG-20010904/DTD/svg10.dtd">
<svg version="1.0" xmlns="http://www.w3.org/2000/svg"
 width="700.000000pt" height="700.000000pt" viewBox="0 0 700.000000 700.000000"
 preserveAspectRatio="xMidYMid meet">
<metadata>
Created by potrace 1.11, written by Peter Selinger 2001-2013
</metadata>
<g transform="translate(0.000000,700.000000) scale(0.100000,-0.100000)"
fill="#000000" stroke="none">
<path d="M3470 6984 c-264 -56 -466 -246 -540 -506 -57 -197 -19 -427 98 -592
l35 -50 -18 -33 c-13 -24 -23 -32 -34 -27 -105 43 -196 39 -331 -15 -107 -44
-327 -154 -440 -221 -36 -22 -74 -44 -85 -49 -49 -26 -438 -291 -455 -310 -3
-3 -43 -35 -90 -71 -47 -35 -87 -67 -90 -70 -3 -3 -50 -44 -105 -91 -303 -261
-417 -423 -486 -689 -31 -119 -31 -375 -1 -600 l8 -55 -116 -115 c-97 -97
-158 -165 -298 -335 -79 -95 -226 -323 -296 -457 -167 -324 -223 -601 -151
-753 l25 -53 -29 -88 c-48 -143 -64 -251 -64 -419 -1 -201 11 -276 65 -445
144 -447 547 -810 1005 -905 125 -26 131 -27 278 -29 164 -3 300 16 444 64
l94 30 52 -25 c89 -42 247 -39 400 7 39 12 75 22 80 24 46 10 234 97 350 162
80 45 267 166 317 206 14 12 41 32 59 46 92 69 221 184 333 296 77 76 130 122
139 119 33 -13 264 -30 402 -29 221 0 397 55 585 180 88 58 243 212 375 369
27 33 52 62 55 65 3 3 37 46 76 95 111 142 211 285 347 496 101 157 232 407
299 571 37 92 42 112 41 183 0 51 -6 94 -17 119 -9 21 -16 39 -16 40 0 1 15 9
33 19 l33 18 67 -44 c247 -162 584 -148 818 34 186 146 285 358 275 592 -2 50
-9 115 -16 142 -19 76 -82 203 -129 263 l-43 54 40 106 c46 124 98 320 107
407 4 33 8 63 11 66 6 10 17 189 16 276 0 79 -9 222 -16 260 -2 10 -7 41 -10
68 -4 28 -12 68 -18 90 -5 22 -12 49 -14 60 -2 11 -6 31 -9 44 -18 92 -125
356 -187 464 -15 26 -28 50 -28 52 0 11 -118 176 -176 247 l-63 76 63 59 c104
99 206 163 339 213 54 20 95 43 107 58 49 62 -1 162 -81 162 -29 0 -143 -42
-221 -81 -94 -47 -173 -103 -268 -189 l-85 -77 -40 34 c-266 231 -653 411
-985 458 -25 3 -56 8 -70 10 -154 23 -401 23 -560 -1 -116 -18 -311 -63 -363
-84 -12 -5 -61 -23 -109 -40 l-87 -31 -53 41 c-65 52 -142 91 -233 119 -89 28
-252 35 -345 15z"/>
</g>
</svg>
