<?xml version="1.0" encoding="utf-8"?>
<!-- Generator: Adobe Illustrator 16.0.4, SVG Export Plug-In . SVG Version: 6.00 Build 0)  -->
<!DOCTYPE svg PUBLIC "-//W3C//DTD SVG 1.1//EN" "http://www.w3.org/Graphics/SVG/1.1/DTD/svg11.dtd">
<svg version="1.1" id="Capa_1" xmlns="http://www.w3.org/2000/svg" xmlns:xlink="http://www.w3.org/1999/xlink" x="0px" y="0px"
	 width="400px" height="560px" viewBox="0 0 400 560" enable-background="new 0 0 400 560" xml:space="preserve">
<path id="XMLID_514_" fill="#7C7C7C" d="M175.94,146.758c4.472,0,8.097-3.625,8.097-8.098v-31.203l37.483,36.968
	c1.546,1.524,3.599,2.332,5.688,2.332c1.052,0,2.113-0.205,3.123-0.627c3.012-1.26,4.973-4.206,4.973-7.471V88.099
	c0-4.473-3.625-8.098-8.098-8.098s-8.098,3.625-8.098,8.098v31.203l-37.483-36.968c-2.325-2.292-5.799-2.966-8.811-1.705
	c-3.012,1.26-4.973,4.206-4.973,7.471v50.562C167.843,143.133,171.468,146.758,175.94,146.758z M307.755,272.172
	c2.736,1.374,4.462,4.175,4.462,7.236c0,3.061-1.727,5.861-4.462,7.235l-65.856,33.09l-33.088,65.856
	c-1.374,2.736-4.174,4.463-7.236,4.463c-3.061,0-5.86-1.727-7.235-4.462l-33.088-65.856l-65.858-33.091
	c-2.736-1.374-4.462-4.175-4.462-7.235c0-3.061,1.727-5.862,4.462-7.236l65.858-33.089l33.087-65.856
	c1.375-2.735,4.175-4.461,7.236-4.461c3.061,0,5.861,1.727,7.234,4.462l33.09,65.856L307.755,272.172z M286.084,279.408
	l-52.779-26.519c-1.199-0.41-2.304-1.1-3.206-2.035c-0.917-0.894-1.595-1.985-2.002-3.168l-26.522-52.787l-26.524,52.792
	c-0.404,1.176-1.077,2.259-1.986,3.15c-0.905,0.942-2.015,1.637-3.221,2.048l-52.778,26.519l52.784,26.521
	c1.198,0.41,2.301,1.1,3.204,2.034c0.916,0.894,1.594,1.983,2,3.165l26.523,52.791l26.521-52.785
	c0.409-1.191,1.093-2.289,2.019-3.188c0.898-0.925,1.994-1.607,3.184-2.016L286.084,279.408z M211.256,279.409
	c0-5.339-4.344-9.683-9.682-9.683c-5.34,0-9.684,4.344-9.684,9.683c0,5.339,4.344,9.683,9.684,9.683
	C206.912,289.092,211.256,284.748,211.256,279.409z M222.678,438.17l-34.111,0.002v-9.441l34.111,0.003l0,0
	c4.473,0,8.098-3.625,8.098-8.097c0-4.473-3.625-8.099-8.098-8.099l-42.21-0.004c-2.148,0-4.207,0.853-5.726,2.372
	c-1.519,1.519-2.372,3.579-2.372,5.726v25.639c0,2.147,0.853,4.208,2.372,5.727c1.519,1.518,3.579,2.371,5.726,2.371l34.113-0.003
	l0.002,9.439h-34.115c-4.473,0-8.098,3.625-8.098,8.098s3.625,8.098,8.098,8.098h42.216c2.148,0,4.209-0.853,5.728-2.373
	c1.519-1.519,2.372-3.579,2.37-5.727l-0.004-25.635C230.775,441.794,227.15,438.17,222.678,438.17z M391.41,296.946h-43.978
	l-0.001-9.44h27.29c4.473,0,8.098-3.625,8.098-8.098s-3.625-8.098-8.098-8.098h-27.291l-0.001-9.437h43.981
	c4.473,0,8.098-3.625,8.098-8.098s-3.625-8.098-8.098-8.098h-52.08c-2.147,0-4.207,0.853-5.726,2.373
	c-1.52,1.519-2.372,3.578-2.372,5.726l0.002,25.431c-0.001,0.067-0.002,0.133-0.002,0.201c0,0.068,0.001,0.134,0.003,0.202
	l0.002,25.437c0,4.472,3.625,8.097,8.098,8.097h52.074c4.473,0,8.098-3.625,8.098-8.098S395.882,296.946,391.41,296.946z
	 M51.66,312.16c0.218,0,0.437-0.01,0.657-0.026c3.305-0.269,6.112-2.523,7.085-5.692l15.148-49.306
	c1.313-4.275-1.087-8.806-5.363-10.119c-4.275-1.312-8.806,1.088-10.118,5.362l-9.176,29.867l-4.935-9.963
	c-1.366-2.759-4.179-4.504-7.255-4.504l0,0c-3.078,0-5.89,1.745-7.256,4.503l-4.937,9.966l-9.176-29.869
	c-1.313-4.274-5.844-6.675-10.119-5.362c-4.274,1.313-6.676,5.844-5.362,10.12L16,306.44c0.974,3.169,3.782,5.425,7.085,5.692
	c3.31,0.267,6.439-1.506,7.91-4.477l6.705-13.537l6.705,13.537C45.78,310.43,48.602,312.16,51.66,312.16z"/>
</svg>
