<?xml version="1.0" encoding="utf-8"?>
<!-- Generator: Adobe Illustrator 16.0.4, SVG Export Plug-In . SVG Version: 6.00 Build 0)  -->
<!DOCTYPE svg PUBLIC "-//W3C//DTD SVG 1.1//EN" "http://www.w3.org/Graphics/SVG/1.1/DTD/svg11.dtd">
<svg version="1.1" id="Capa_1" xmlns="http://www.w3.org/2000/svg" xmlns:xlink="http://www.w3.org/1999/xlink" x="0px" y="0px"
	 width="900px" height="900px" viewBox="0 0 900 900" enable-background="new 0 0 900 900" xml:space="preserve">
<path fill="#495059" d="M805.572,107.613c-3.373,0-6.748-1.287-9.322-3.86c-5.148-5.15-5.148-13.496,0-18.645l23.238-23.238
	c17.406-17.406,39.103-30.236,62.742-37.102c6.994-2.036,14.307,1.992,16.337,8.982c2.03,6.994-1.991,14.307-8.984,16.337
	c-19.385,5.63-37.176,16.149-51.451,30.426l-23.238,23.24C812.32,106.325,808.945,107.613,805.572,107.613z"/>
<circle fill="#CCA68B" cx="464.748" cy="91.67" r="91.67"/>
<circle fill="#CCA68B" cx="808.33" cy="435.252" r="91.67"/>
<circle fill="#38648C" cx="176.607" cy="723.393" r="176.607"/>
<path opacity="0.1" enable-background="new    " d="M301.48,848.274c68.968-68.968,68.968-180.787,0-249.755
	s-180.787-68.968-249.755,0c-27.283,27.281-43.728,61.275-49.425,96.664c14.375,10.223,34.464,20.132,61.686,30.661
	c22.994,8.893,51.089,18.127,82.882,27.286c9.16,31.794,18.394,59.889,27.287,82.883c10.529,27.222,20.438,47.312,30.66,61.688
	C240.205,892,274.199,875.556,301.48,848.274z"/>
<circle opacity="0.1" enable-background="new    " cx="464.748" cy="91.67" r="91.67"/>
<circle opacity="0.1" enable-background="new    " cx="808.33" cy="435.252" r="91.67"/>
<ellipse transform="matrix(-0.7071 -0.7071 0.7071 -0.7071 885.3137 906.0619)" fill="#CCA68B" cx="630.308" cy="269.677" rx="264.74" ry="270.664"/>
<g>
	
		<ellipse transform="matrix(-0.7071 -0.7071 0.7071 -0.7071 756.969 667.2441)" fill="#F28B74" cx="516.675" cy="176.849" rx="53.869" ry="42.899"/>
	
		<ellipse transform="matrix(0.7071 0.7071 -0.7071 0.7071 482.868 -399.0795)" fill="#F28B74" cx="723.166" cy="383.333" rx="53.869" ry="42.899"/>
</g>
<g>
	<path fill="#495059" d="M590.022,197.352c-3.374,0-6.749-1.287-9.322-3.86c-5.148-5.15-5.148-13.497,0-18.645
		c2.353-2.352,3.647-5.479,3.647-8.807c0-3.33-1.295-6.457-3.647-8.809c-2.354-2.355-5.48-3.649-8.809-3.649
		c-3.327,0-6.454,1.293-8.808,3.647c-5.148,5.15-13.495,5.148-18.646,0.001c-5.148-5.148-5.148-13.497,0-18.645
		c7.334-7.335,17.084-11.373,27.454-11.373c10.371,0,20.121,4.038,27.453,11.373c7.332,7.332,11.369,17.083,11.369,27.452
		c0,10.368-4.037,20.118-11.371,27.452C596.771,196.064,593.397,197.352,590.022,197.352z"/>
	<path fill="#495059" d="M752.093,359.423c-3.374,0-6.749-1.287-9.322-3.86c-5.148-5.15-5.148-13.497,0-18.646
		c2.353-2.352,3.647-5.48,3.647-8.808s-1.295-6.457-3.647-8.809c-4.858-4.86-12.76-4.86-17.616,0
		c-5.149,5.147-13.497,5.147-18.646,0c-5.148-5.15-5.148-13.497,0-18.645c15.137-15.137,39.767-15.137,54.905,0
		c7.332,7.333,11.371,17.084,11.371,27.454c0,10.369-4.037,20.12-11.371,27.454C758.841,358.135,755.466,359.423,752.093,359.423z"
		/>
	<path fill="#495059" d="M648.481,300.765c-13.027,0-25.563-5.154-34.829-14.417c-10.065-10.065-15.277-23.994-14.302-38.218
		c0.499-7.265,6.803-12.756,14.056-12.25c7.264,0.498,12.748,6.791,12.25,14.056c-0.453,6.618,1.967,13.094,6.64,17.766
		c4.676,4.676,11.147,7.084,17.768,6.641c7.26-0.473,13.559,4.985,14.058,12.249c0.499,7.265-4.985,13.558-12.248,14.057
		C650.738,300.727,649.608,300.765,648.481,300.765z"/>
</g>
<path opacity="0.05" enable-background="new    " d="M558.411,13.412c-42.071,12.616-81.873,35.643-115.295,69.064
	c-105.7,105.701-107.574,275.201-4.186,378.593c59.945,59.944,142.112,84.496,221.186,73.949
	C491.388,478.984,439.713,197.246,558.411,13.412z"/>
<path fill="#76B7EB" d="M228.839,388.243c107.782,1.292,351.375,26.955,491.614,100.161c21.885,11.424,31.781,37.304,23.106,60.417
	c-21.995,58.604-80.042,145.194-133.173,197.287c-26.861,26.337-63.733,40.062-101.293,37.926
	C360.877,775.606,33.852,700.326,10.026,651.54c-24.2-49.555,51.824-177.061,142.698-240.229
	C175.017,395.813,201.691,387.917,228.839,388.243z"/>
<path opacity="0.1" enable-background="new    " d="M228.839,388.243c107.782,1.292,351.375,26.955,491.614,100.161
	c21.885,11.424,31.781,37.304,23.106,60.417c-21.995,58.604-80.042,145.194-133.173,197.287
	c-26.861,26.337-63.733,40.062-101.293,37.926C360.877,775.606,33.852,700.326,10.026,651.54
	c-24.2-49.555,51.824-177.061,142.698-240.229C175.017,395.813,201.691,387.917,228.839,388.243z"/>
<path opacity="0.1" enable-background="new    " d="M152.724,411.311c-23.291,16.189-45.6,36.611-65.503,58.858
	c9.195,67.752,25.024,149.251,44.293,225.858c1.315,5.229,2.639,10.374,3.967,15.472c114.086,34.94,277.743,66.777,371.737,72.415
	c4.032-5.181,7.906-10.419,11.586-15.71c19.803-28.492,30.048-62.203,29.624-97.486c-0.561-46.888-6.761-143.616-24.987-247.641
	c-112.544-24.191-228.844-34.05-294.599-34.838C201.691,387.917,175.017,395.813,152.724,411.311z"/>
<path fill="#76B7EB" d="M511.757,671.161c-1.29-107.782-26.954-351.375-100.16-491.615c-11.424-21.885-37.304-31.781-60.417-23.106
	c-58.604,21.996-145.194,80.042-197.287,133.174c-26.337,26.861-40.062,63.733-37.927,101.292
	c8.427,148.217,83.707,475.243,132.494,499.068c49.555,24.201,177.062-51.822,240.231-142.696
	C504.187,724.983,512.082,698.309,511.757,671.161z"/>
<g opacity="0.1">
	<path d="M202.695,567.279c-6.156,0.002-11.66-4.331-12.913-10.598c-1.123-5.609-6.369-39.939-6.369-46.593
		c0-7.282,5.903-13.184,13.184-13.184c7.258,0,13.145,5.864,13.184,13.113c0.143,4.354,4.53,34.866,5.855,41.49
		c1.429,7.138-3.199,14.085-10.339,15.514C204.423,567.195,203.551,567.279,202.695,567.279z M209.781,510.089h0.018H209.781z"/>
	<path d="M346.184,327.716c-1.389,0-2.8-0.22-4.19-0.684c-6.908-2.303-10.628-9.805-8.327-16.713
		c0.965-2.895,3.583-8.402,9.472-20.458c1.627-3.333,3.165-6.482,3.725-7.717c3.002-6.634,10.812-9.578,17.446-6.574
		c6.632,3.004,9.576,10.814,6.574,17.448c-0.719,1.587-2.19,4.6-4.054,8.417c-2.579,5.279-7.379,15.106-8.172,17.293
		C356.816,324.246,351.692,327.716,346.184,327.716z"/>
	<path d="M407.519,584.574c-2.248,0-4.524-0.574-6.607-1.784c-6.445-3.744-24.454-14.039-30.29-16.7
		c-6.626-3.021-9.549-10.837-6.529-17.464c3.021-6.627,10.837-9.553,17.464-6.529c8.068,3.678,30.11,16.444,32.598,17.89
		c6.296,3.656,8.438,11.725,4.781,18.021C416.485,582.223,412.062,584.574,407.519,584.574z"/>
	<path d="M317.187,805.649c-7.28,0-13.184-5.901-13.184-13.184c0-7.265-1.896-34.657-2.809-47.821
		c-0.292-4.226-0.514-7.418-0.598-8.812c-0.435-7.269,5.104-13.515,12.373-13.947c7.286-0.479,13.513,5.105,13.948,12.372
		c0.081,1.355,0.295,4.456,0.58,8.565c1.391,20.062,2.872,42.098,2.872,49.643C330.37,799.748,324.468,805.649,317.187,805.649z"/>
	<path d="M577.571,575.93c-5.437,0-10.525-3.389-12.435-8.809c-2.419-6.866,1.188-14.395,8.055-16.813
		c5.052-1.778,16.906-8.884,24.751-13.584c11.476-6.877,15.284-9.088,19.052-9.842c7.137-1.423,14.087,3.2,15.515,10.341
		c1.339,6.693-2.646,13.215-9.03,15.183c-1.973,0.937-7.726,4.386-11.981,6.936c-10.304,6.176-21.983,13.172-29.545,15.837
		C580.504,575.688,579.025,575.93,577.571,575.93z M622.185,552.733c-0.005,0-0.011,0.002-0.016,0.004
		C622.174,552.735,622.18,552.733,622.185,552.733z"/>
</g>
</svg>
