<?xml version="1.0" encoding="utf-8"?>
<!-- Generator: Adobe Illustrator 16.0.4, SVG Export Plug-In . SVG Version: 6.00 Build 0)  -->
<!DOCTYPE svg PUBLIC "-//W3C//DTD SVG 1.1//EN" "http://www.w3.org/Graphics/SVG/1.1/DTD/svg11.dtd">
<svg version="1.1" id="Layer_1" xmlns="http://www.w3.org/2000/svg" xmlns:xlink="http://www.w3.org/1999/xlink" x="0px" y="0px"
	 width="895.103px" height="748.729px" viewBox="0 0 895.103 748.729" enable-background="new 0 0 895.103 748.729"
	 xml:space="preserve">
<g>
	<g>
		<path fill="#BC8871" d="M482.318,383.972c-15.783,4.829-74.839-0.185-75.21-0.37c-5.386,11.327-5.386,30.642-5.571,38.07
			c0,0-1.113,0.742,28.042,0c10.213-0.188,54.041,0.369,54.041,0.369S487.891,393.816,482.318,383.972"/>
		<g opacity="0.5">
			<defs>
				<rect id="SVGID_1_" x="463.191" y="399.757" opacity="0.5" width="2.971" height="2.785"/>
			</defs>
			<clipPath id="SVGID_2_">
				<use xlink:href="#SVGID_1_"  overflow="visible"/>
			</clipPath>
			<g clip-path="url(#SVGID_2_)">
				<defs>
					<rect id="SVGID_3_" x="463.191" y="399.757" width="2.971" height="2.785"/>
				</defs>
				<clipPath id="SVGID_4_">
					<use xlink:href="#SVGID_3_"  overflow="visible"/>
				</clipPath>
				<path clip-path="url(#SVGID_4_)" fill="#A67554" d="M463.191,401.057c0,0.743,0.559,1.485,1.299,1.485
					c0.742,0,1.486-0.557,1.486-1.298c0-0.744-0.559-1.487-1.301-1.487C463.75,399.757,463.191,400.315,463.191,401.057"/>
			</g>
		</g>
		<g opacity="0.5">
			<defs>
				<rect id="SVGID_5_" x="428.835" y="399.943" opacity="0.5" width="2.972" height="2.786"/>
			</defs>
			<clipPath id="SVGID_6_">
				<use xlink:href="#SVGID_5_"  overflow="visible"/>
			</clipPath>
			<g clip-path="url(#SVGID_6_)">
				<defs>
					<rect id="SVGID_7_" x="428.835" y="399.943" width="2.972" height="2.786"/>
				</defs>
				<clipPath id="SVGID_8_">
					<use xlink:href="#SVGID_7_"  overflow="visible"/>
				</clipPath>
				<path clip-path="url(#SVGID_8_)" fill="#A67554" d="M428.835,401.244c0,0.741,0.558,1.485,1.301,1.485
					c0.742,0,1.484-0.557,1.484-1.301c0-0.743-0.557-1.485-1.299-1.485C429.393,399.943,428.835,400.5,428.835,401.244"/>
			</g>
		</g>
		<path fill="#BC8871" d="M499.033,373.389c-6.129,3.897-12.814,5.383-19.688,5.756c0,0-14.67,14.855-8.541,35.099
			c0.186,0-9.285,5.941-8.172,26.184c0,0.185,0-0.185,0-0.185c-15.414-4.458-13.557,5.384-8.541,5.571
			c1.857,0,4.086,0.557,4.086,0.557c0.928-0.557-6.129,4.828-6.5,6.499c-1.486,7.429,11.885-3.342,11.699-3.157
			c-1.672,1.3-10.215,8.172-7.428,10.957c1.855,1.858,5.014-1.486,7.057-2.785c2.227-1.486,6.871-3.157,6.686-2.972
			c-1.301,1.3-2.229,3.342-2.973,4.829c-0.557,1.299-1.857,3.527-1.113,5.013c2.229,3.344,8.729-7.057,10.398-8.542
			c0.373-0.186-0.742,2.601-0.186,4.828c0.742,3.156,4.271,0.371,5.572-0.929c7.055-7.058,3.158-14.113,3.527-14.485
			c1.857-2.229,13-7.429,12.629-26.555v-0.186C497.732,418.886,516.117,390.287,499.033,373.389"/>
		<path fill="#A67554" d="M482.133,458.254c-1.299,1.301-4.828,4.273-5.572,0.929c-0.557-2.227,0.559-5.013,0.188-4.828
			c-1.672,1.301-8.172,11.7-10.4,8.542c-0.742-1.485,4.457-8.913,5.758-10.398c0.184-0.186-6.129,2.042-8.355,3.342
			c-2.045,1.301-6.316,5.2-7.057,2.786c-0.561-1.67,3.713-6.313,6.684-9.099c-2.23,1.671-9.844,7.984-7.057,10.771
			c1.857,1.856,5.014-1.485,7.057-2.786c2.229-1.485,6.871-3.157,6.686-2.972c-1.301,1.3-2.229,3.157-2.971,4.828
			c-0.557,1.301-1.859,3.528-1.115,5.016c2.227,3.342,8.729-7.059,10.4-8.544c0.371-0.185-0.744,2.602-0.186,4.829
			c0.742,3.156,4.271,0.371,5.57-0.928c2.6-2.785,3.715-5.387,4.084-7.801C485.289,454.17,484.176,456.212,482.133,458.254"/>
		<path fill="#A67554" d="M465.605,447.67c0.186-0.187-13.186,9.471-13.371,4.457c-0.186,0.186-0.186,0.371-0.371,0.557
			c-1.486,6.685,9.283-1.299,11.328-2.786C464.305,448.784,465.232,448.04,465.605,447.67"/>
		<path fill="#E0B9A8" d="M451.863,452.684c0-0.371,0.557-1.114,1.299-1.857C452.605,451.569,452.049,452.127,451.863,452.684"/>
		<path fill="#A67554" d="M458.361,446.183c1.301-1.112,2.045-1.67,1.674-1.485c0,0-1.857,0.188-5.016-0.185
			c-2.6-0.372-4.457-2.413-3.715-3.901c-1.672,1.857,0.186,5.015,2.971,5.015C455.764,445.626,457.805,445.998,458.361,446.183"/>
		<path fill="#E0B9A8" d="M476.377,456.212c0,0,0,0.371-0.186,0.744C476.377,456.583,476.377,456.212,476.377,456.212"/>
		<path fill="#A67554" d="M499.033,373.389c-6.129,3.897-12.814,5.383-19.688,5.756c0,0-14.67,14.855-8.541,35.099
			c0.186,0-9.658,6.685-8.172,26.184c0.188-17.271,12.072-25.999,11.887-26.184c-6.129-20.243,6.871-27.485,8.541-29.156
			c0,0,9.473-2.973,15.785-6.871c14.672,14.299-3.527,40.67-3.527,40.67c0.928,14.112-3.158,25.44-23.029,22.47
			c-0.184,0,7.986,1.672,7.986,1.672c4.643,1.299,4.643,2.414,4.643,2.414c1.857-2.229,13-7.428,12.629-26.556v-0.187
			C497.732,418.886,516.117,390.287,499.033,373.389"/>
		<path fill="#BC8871" d="M395.408,373.389c6.128,3.897,12.813,5.383,19.686,5.756c0,0,14.67,14.855,8.542,35.099
			c-0.186,0,9.286,5.941,8.171,26.184c0,0.185,0-0.185,0-0.185c15.412-4.458,13.556,5.384,8.542,5.571
			c-1.857,0-4.086,0.557-4.086,0.557c-0.929-0.557,6.129,4.828,6.5,6.499c1.486,7.429-11.885-3.342-11.699-3.157
			c1.671,1.3,10.214,8.172,7.428,10.957c-1.857,1.858-5.014-1.486-7.057-2.785c-2.229-1.486-6.871-3.157-6.685-2.972
			c1.299,1.3,2.227,3.342,2.97,4.829c0.558,1.299,1.857,3.527,1.114,5.013c-2.227,3.344-8.728-7.057-10.399-8.542
			c-0.371-0.186,0.744,2.601,0.187,4.828c-0.743,3.156-4.271,0.371-5.572-0.929c-7.056-7.058-3.157-14.113-3.528-14.485
			c-1.857-2.229-13-7.429-12.627-26.555v-0.186C396.895,418.886,378.508,390.287,395.408,373.389"/>
		<path fill="#A67554" d="M412.493,458.254c1.299,1.301,4.829,4.273,5.571,0.929c0.558-2.227-0.558-5.013-0.186-4.828
			c1.671,1.301,8.171,11.7,10.4,8.542c0.742-1.485-4.457-8.913-5.757-10.398c-0.186-0.186,6.128,2.042,8.356,3.342
			c2.043,1.301,6.314,5.2,7.056,2.786c0.558-1.67-3.714-6.313-6.685-9.099c2.229,1.671,9.842,7.984,7.057,10.771
			c-1.857,1.856-5.014-1.485-7.057-2.786c-2.229-1.485-6.871-3.157-6.685-2.972c1.3,1.3,2.228,3.157,2.971,4.828
			c0.557,1.301,1.857,3.528,1.114,5.016c-2.228,3.342-8.728-7.059-10.399-8.544c-0.371-0.185,0.743,2.602,0.186,4.829
			c-0.743,3.156-4.271,0.371-5.571-0.928c-2.6-2.785-3.715-5.387-4.085-7.801C409.336,454.17,410.451,456.212,412.493,458.254"/>
		<path fill="#A67554" d="M429.021,447.67c-0.186-0.187,13.185,9.471,13.371,4.457c0.186,0.186,0.186,0.371,0.371,0.557
			c1.486,6.685-9.285-1.299-11.328-2.786C430.322,448.784,429.393,448.04,429.021,447.67"/>
		<path fill="#E0B9A8" d="M442.578,452.684c0-0.371-0.557-1.114-1.299-1.857C442.021,451.569,442.578,452.127,442.578,452.684"/>
		<path fill="#A67554" d="M436.077,446.183c-1.299-1.112-2.042-1.67-1.671-1.485c0,0,1.857,0.188,5.015-0.185
			c2.6-0.372,4.457-2.413,3.714-3.901c1.672,1.857-0.186,5.015-2.971,5.015C438.678,445.626,436.821,445.998,436.077,446.183"/>
		<path fill="#E0B9A8" d="M418.25,456.212c0,0,0,0.371,0.186,0.744C418.25,456.583,418.25,456.212,418.25,456.212"/>
		<path fill="#A67554" d="M436.263,454.354c2.043,2.229,3.528,4.644,2.043,6.128C439.606,459.183,438.306,456.769,436.263,454.354"
			/>
		<path fill="#A67554" d="M395.408,373.389c6.128,3.897,12.813,5.383,19.686,5.756c0,0,14.67,14.855,8.542,35.099
			c-0.186,0,9.656,6.685,8.171,26.184c-0.187-17.271-12.072-25.999-11.885-26.184c6.128-20.243-6.872-27.485-8.543-29.156
			c0,0-9.47-2.973-15.785-6.871c-14.67,14.299,3.528,40.67,3.528,40.67c-0.929,14.112,3.157,25.44,23.027,22.47
			c0.187,0-7.985,1.672-7.985,1.672c-4.642,1.299-4.642,2.414-4.642,2.414c-1.857-2.229-13-7.428-12.627-26.556v-0.187
			C396.895,418.886,378.508,390.287,395.408,373.389"/>
		<path fill="#F26A67" d="M448.148,356.116c4.643,0.559,7.801,5.2,7.242,10.585c-0.555,5.387-4.828,9.285-9.469,8.729
			c-4.643-0.556-7.802-5.2-7.243-10.585C439.421,359.646,443.692,355.746,448.148,356.116"/>
		<path fill="#781E17" d="M447.777,359.46c3.527,0.369,5.941,3.527,5.57,7.057c-0.369,3.527-3.527,6.128-7.056,5.756
			c-3.528-0.372-5.942-3.526-5.571-7.056C441.092,361.688,444.249,359.088,447.777,359.46"/>
		<path fill="#BC8871" d="M354.925,339.773c4.271,7.057,12.814,9.843,19.128,6.129c6.313-3.715,7.985-12.627,3.713-19.684
			c-4.271-7.057-12.812-9.843-19.127-5.943C352.325,323.805,350.653,332.531,354.925,339.773"/>
		<path fill="#966847" d="M362.91,337.175c-2.601-2.601-2.786-6.5-0.558-8.728c1.116-1.115,2.601-1.673,4.271-1.486
			c0.557,4.271,1.486,8.17,2.6,12.257C367.181,339.59,364.767,339.031,362.91,337.175"/>
		<path fill="#BC8871" d="M528.373,318.604c-1.672,44.755-39.184,79.667-83.753,78.182c-44.754-1.484-79.667-39.184-78.182-83.753
			c1.671-44.756,39.183-79.668,83.753-78.183C494.947,236.523,530.045,274.035,528.373,318.604"/>
		<path fill="#A67554" d="M442.949,394.186c-26.742-0.557-49.955-14.67-64.068-34.912c13.928,21.728,37.884,36.584,65.553,37.513
			c34.728,1.3,65.183-19.684,77.812-50.141C521.689,346.461,496.988,395.485,442.949,394.186"/>
		<path fill="#BC8871" d="M539.332,339.773c-4.273,7.057-12.816,9.843-19.131,6.129c-6.312-3.715-7.984-12.627-3.713-19.684
			s12.812-9.843,19.129-5.943C541.93,323.805,543.602,332.531,539.332,339.773"/>
		<path fill="#966847" d="M531.344,337.175c2.602-2.601,2.785-6.5,0.559-8.728c-1.115-1.115-2.602-1.673-4.273-1.486
			c-0.555,4.271-1.484,8.17-2.598,12.257C527.074,339.59,529.486,339.031,531.344,337.175"/>
		<path fill="#010101" d="M416.394,320.646c0,4.086-2.229,7.242-4.828,7.242c-2.6,0-4.829-3.342-4.829-7.428
			c0-4.085,2.229-7.242,4.829-7.242C414.351,313.219,416.394,316.562,416.394,320.646"/>
		<path fill="#010101" d="M487.891,320.646c0,4.086-2.23,7.242-4.83,7.242c-2.598,0-4.828-3.342-4.828-7.428
			c0-4.085,2.23-7.242,4.828-7.242C485.846,313.219,487.891,316.562,487.891,320.646"/>
		<g opacity="0.5">
			<defs>
				<rect id="SVGID_9_" x="394.294" y="331.976" opacity="0.5" width="20.8" height="11.142"/>
			</defs>
			<clipPath id="SVGID_10_">
				<use xlink:href="#SVGID_9_"  overflow="visible"/>
			</clipPath>
			<g clip-path="url(#SVGID_10_)">
				<defs>
					<rect id="SVGID_11_" x="394.294" y="331.976" width="20.8" height="11.142"/>
				</defs>
				<clipPath id="SVGID_12_">
					<use xlink:href="#SVGID_11_"  overflow="visible"/>
				</clipPath>
				<path clip-path="url(#SVGID_12_)" fill="#BD6272" d="M394.294,336.617c-0.371,2.973,4.086,5.943,9.843,6.5
					c5.756,0.558,10.584-1.486,10.957-4.457c0.371-2.971-4.086-5.943-9.842-6.499C399.308,331.604,394.479,333.461,394.294,336.617"
					/>
			</g>
		</g>
		<g opacity="0.5">
			<defs>
				<rect id="SVGID_13_" x="481.391" y="331.976" opacity="0.5" width="20.799" height="11.142"/>
			</defs>
			<clipPath id="SVGID_14_">
				<use xlink:href="#SVGID_13_"  overflow="visible"/>
			</clipPath>
			<g clip-path="url(#SVGID_14_)">
				<defs>
					<rect id="SVGID_15_" x="481.391" y="331.976" width="20.799" height="11.142"/>
				</defs>
				<clipPath id="SVGID_16_">
					<use xlink:href="#SVGID_15_"  overflow="visible"/>
				</clipPath>
				<path clip-path="url(#SVGID_16_)" fill="#BD6272" d="M481.391,336.617c-0.373,2.973,4.086,5.943,9.842,6.5
					c5.756,0.558,10.586-1.486,10.957-4.457s-4.086-5.943-9.844-6.499C486.59,331.604,481.762,333.461,481.391,336.617"/>
			</g>
		</g>
		<path fill="#966847" d="M447.219,325.662c-3.156,1.484-6.684,3.898-7.798,7.242c-1.115,2.785,0.186,6.127,2.414,8.17
			c1.487,1.301,5.943,3.343,10.214,1.113C440.164,342.003,441.464,330.861,447.219,325.662"/>
		<g opacity="0.3">
			<defs>
				<rect id="SVGID_17_" x="403.208" y="298.362" opacity="0.3" width="12.999" height="5.201"/>
			</defs>
			<clipPath id="SVGID_18_">
				<use xlink:href="#SVGID_17_"  overflow="visible"/>
			</clipPath>
			<g clip-path="url(#SVGID_18_)">
				<defs>
					<rect id="SVGID_19_" x="403.208" y="298.362" width="12.999" height="5.201"/>
				</defs>
				<clipPath id="SVGID_20_">
					<use xlink:href="#SVGID_19_"  overflow="visible"/>
				</clipPath>
				<path clip-path="url(#SVGID_20_)" fill="#614B54" d="M416.021,302.262c-0.557,0.742-3.157-2.042-6.499-1.67
					c-3.528,0.556-5.757,3.527-6.314,2.971c-0.558,0,0.929-4.272,5.941-5.201C414.536,298.176,416.394,302.262,416.021,302.262"/>
			</g>
		</g>
		<g opacity="0.3">
			<defs>
				<rect id="SVGID_21_" x="478.047" y="298.362" opacity="0.3" width="13" height="4.83"/>
			</defs>
			<clipPath id="SVGID_22_">
				<use xlink:href="#SVGID_21_"  overflow="visible"/>
			</clipPath>
			<g clip-path="url(#SVGID_22_)">
				<defs>
					<rect id="SVGID_23_" x="478.047" y="298.362" width="13" height="4.83"/>
				</defs>
				<clipPath id="SVGID_24_">
					<use xlink:href="#SVGID_23_"  overflow="visible"/>
				</clipPath>
				<path clip-path="url(#SVGID_24_)" fill="#614B54" d="M478.047,302.818c0.557,0.559,2.971-2.227,6.502-2.227
					c3.525,0.184,5.939,3.156,6.498,2.6c0.559-0.188-1.115-4.272-6.314-4.83C479.346,298.548,477.676,302.818,478.047,302.818"/>
			</g>
		</g>
		<path fill="#C64E53" d="M444.993,356.859c-4.458,0.185-7.801,4.457-7.614,9.657c0.186,5.198,3.9,9.286,8.356,9.099
			c4.457-0.186,7.799-4.456,7.613-9.655C453.348,360.759,449.447,356.675,444.993,356.859"/>
		<path fill="#781E17" d="M445.178,360.017c-3.343,0.186-5.942,2.971-5.942,6.313c0.186,3.344,2.971,6.129,6.315,5.942
			c3.342-0.185,5.94-2.97,5.94-6.312C451.49,362.615,448.52,359.829,445.178,360.017"/>
		<path fill="#523F37" d="M437.564,249.707c-5.571-4.271-7.428-9.47-7.8-13.556c-0.371-3.9-2.972-7.985-6.686-7.428
			c-4.085,0.557-4.271,7.057,0,6.128c0.186,0-0.742-0.185-0.742-0.185c-0.743-0.186-1.485-1.115-1.3-1.856
			c0-0.744,0.557-1.487,1.3-1.673c1.114-0.556,2.785,0.187,3.342,1.115c0.558,0.742,0.93,2.043,0.93,2.971
			c0,2.786,3.714,14.114,14.112,16.714C439.421,251.379,438.678,250.45,437.564,249.707"/>
		<path fill="#352921" d="M426.421,226.309c-1.115-0.186-2.043-0.744-2.229-2.043c0-0.928,0.186-2.043,0.742-2.785
			c1.673-2.229,5.387-3.528,7.987-2.786c6.87,2.228,4.457,11.514,3.899,17.085c-0.186,2.229,0,4.829,0.929,7.057
			c1.485,3.156,4.084,5.385,7.057,6.87c-1.857-3.156-3.343-6.127-2.972-9.842c1.857-19.499-3.9-22.656-8.17-24.141
			c-4.458-1.671-9.1,0.186-10.771,4.642c-0.372,2.042-0.372,4.271,1.485,5.757C425.307,226.866,426.978,226.494,426.421,226.309"/>
		<path fill="#0C090B" d="M433.107,215.538c4.085,1.486,10.771,4.828,8.171,24.142c-0.743,5.943,3.899,10.399,4.272,10.585
			c-2.045-3.343-3.716-6.313-3.158-10.4c1.857-19.499-3.9-22.656-8.172-24.141c-0.556-0.186-1.113-0.373-1.671-0.373
			C432.549,215.351,432.735,215.351,433.107,215.538"/>
		<path fill="#0C090B" d="M429.95,235.408c0,0-1.671,13.185,10.214,16.342C440.164,251.75,432.735,250.265,429.95,235.408"/>
		<path fill="#523F37" d="M449.264,248.593c-1.115-7.057,1.113-11.886,3.527-15.228c2.414-3.157,3.158-7.8,0.188-10.027
			c-3.346-2.416-7.986,2.227-4.273,4.456c0.188,0-0.369-0.557-0.369-0.742c-0.373-0.558-0.188-1.857,0.369-2.229
			c0.559-0.371,1.486-0.557,2.043-0.371c1.115,0.371,1.857,2.042,1.672,3.157c-0.186,0.929-0.742,2.043-1.299,2.786
			c-1.857,2.043-6.872,12.813-0.93,21.727C449.447,251.193,449.447,249.892,449.264,248.593"/>
		<path fill="#0C090B" d="M453.348,232.993c0,0-10.213,8.543-3.527,18.943C449.633,251.75,445.363,245.808,453.348,232.993"/>
	</g>
	<polyline fill="#C69C6D" points="319.05,670.635 303.051,748.729 593.988,748.729 582.229,670.232 448.125,417.518 	"/>
	<path fill="#C69C6D" d="M714.078,252.118"/>
	<path fill="#C69C6D" d="M671.367,608.49"/>
	<path fill="#C69C6D" d="M249.815,343.177"/>
	<path fill="#C69C6D" d="M116.722,9.286c13.962,0.736,21.968,0.226,38.379-1.238c36.756-3.278,71.216-4.065,81.091,17.333
		c14.283,30.951-16.755,59.931-21.047,105.852c-6.189,66.236-1.856,103.19,18.571,138.661
		c22.47,39.018,37.145,70.843,29.623,125.132c-11.052,79.762-7.956,81.62-7.956,81.62s6.19,6.952,29.093-5.571
		c39.618-21.665,37.658-18.65,57.241-27.575c22.835-10.406,52.578-21.461,97.196-25.085c5.682-0.461,8.639-2.438,8.639-2.438
		l-5.623,207.37c-15.457,6.625-104.059,31.71-174.164,38.382c-81.076,7.718-82.169-8.313-101.67-12.234
		c-49.989-10.052-51.418-87.76-56.18-142.52c-2.67-30.693,6.305-80.258,12.384-129.996c4.768-39.002,5.377-79.122,9.621-110.613
		c8.198-60.842,3.378-180.324-61-205.085C8.541,37.288,72.157,67.47,19.11,37.587C-10.042,21.164-0.893-0.121,13.964,3.714
		C22.766,5.986,29.44,7.428,29.44,7.428S42.201,0,67.2,0C100.532,0,71.485,6.905,116.722,9.286z"/>
	<path fill="#966847" d="M253.525,477.42c-0.647,1.466-1.277,30.229,1.861,50.75c2.737,17.896,9.173,27.909,10.176,28.896
		c0.92,0.865-2.474-6.686-6.153-30.75c-3.424-22.411-1.963-47.777-1.698-47.903"/>
	<path fill="#966847" d="M119.202,23.055C116.39,23.58,85.978,5.571,85.978,5.571s8.538,7.187,24.868,15.626"/>
	<path fill="#65B1EF" d="M480.24,265.691c0,3.208-2.584,5.793-5.793,5.793c-3.18,0-5.764-2.585-5.764-5.793
		c0-3.209,5.764-13.143,5.764-13.143S480.24,262.482,480.24,265.691z"/>
	<path fill="#65B1EF" d="M500.969,287.261c0,4.153-3.35,7.501-7.5,7.501c-4.111,0-7.459-3.349-7.459-7.501
		c0-4.154,7.459-17.014,7.459-17.014S500.969,283.11,500.969,287.261z"/>
	<path fill="#FFFFFF" stroke="#000000" stroke-miterlimit="10" d="M205.866,271.484"/>
	<path fill="#C69C6D" d="M749.363,164.034"/>
	<path fill="#966847" d="M379.201,429.271c0.132,0.063,2.331,46.597-7.749,91.716c-10.08,45.121-10.08,45.121-17.642,74.969
		c-5.98,23.602-23.58,56.686-22.662,55.82c1.004-0.986,13.425-9.142,16.162-27.036c0.059-0.385,14.331-37.274,21.355-70.567
		c11.649-55.214,13.076-124.63,12.679-125.527"/>
	<path fill="#C69C6D" d="M778.381,9.286c-13.961,0.736-21.967,0.226-38.379-1.238c-36.758-3.278-71.213-4.065-81.09,17.333
		c-14.285,30.951,16.754,59.931,21.049,105.852c6.186,66.236,1.854,103.19-18.574,138.661
		c-22.471,39.018-37.145,70.843-29.623,125.132c11.053,79.762,7.957,81.62,7.957,81.62s-6.189,6.952-29.094-5.571
		c-39.617-21.665-37.656-18.65-57.238-27.575c-22.836-10.406-52.58-21.461-97.197-25.085c-5.682-0.461-8.64-2.438-8.64-2.438
		l5.625,207.37c15.457,6.625,104.059,31.71,174.164,38.382c81.076,7.718,82.168-8.313,101.67-12.234
		c49.992-10.052,51.418-87.76,56.18-142.52c2.668-30.693-6.307-80.258-12.387-129.996c-4.764-39.002-5.375-79.122-9.617-110.613
		c-8.197-60.842-3.377-180.324,61-205.085c62.379-23.992-1.238,6.19,51.809-23.693c29.152-16.423,19.998-37.708,5.143-33.873
		c-8.799,2.272-15.471,3.713-15.471,3.713S852.902,0,827.902,0C794.57,0,823.619,6.905,778.381,9.286z"/>
	<path fill="#966847" d="M641.578,481.134c0.648,1.467,1.275,30.229-1.861,50.752c-2.736,17.894-9.172,27.907-10.178,28.895
		c-0.918,0.866,2.477-6.685,6.156-30.752c3.422-22.41,1.963-47.776,1.695-47.903"/>
	<path fill="#966847" d="M775.902,26.769c2.811,0.526,33.223-17.483,33.223-17.483s-8.537,7.187-24.867,15.626"/>
	<path fill="#966847" d="M458.666,540.4c7.496,4.391,17.525-15.787,17.525-15.787s-11.219,41.184-28.64,5.881
		c-16.212-32.871-2.583-6.34-1.507-6.5"/>
	<path fill="#C6E3E5" d="M210.198,729.199l28.475-136.803l11.139-114.977c0,0,35.176-14.914,77.03-29.827
		s90.389-29.828,117.108-29.828c74.581,0,192.056,58.881,192.056,58.881l15.551,100.912l45.189,157.212"/>
</g>
</svg>
