<?xml version="1.0" encoding="utf-8"?>
<!-- Generator: Adobe Illustrator 16.0.4, SVG Export Plug-In . SVG Version: 6.00 Build 0)  -->
<!DOCTYPE svg PUBLIC "-//W3C//DTD SVG 1.1//EN" "http://www.w3.org/Graphics/SVG/1.1/DTD/svg11.dtd">
<svg version="1.1" id="Layer_1" xmlns="http://www.w3.org/2000/svg" xmlns:xlink="http://www.w3.org/1999/xlink" x="0px" y="0px"
	 width="189.14px" height="228.167px" viewBox="0 0 189.14 228.167" enable-background="new 0 0 189.14 228.167"
	 xml:space="preserve">
<path fill="#BC8871" d="M144.834,156.808c-15.783,4.829-100.292-0.836-100.664-1.021c-1.958,4.119,7.037,18.305,6.06,28.487
	c-1.711,17.818-2.177,39.165-2.295,43.893h89.082c0,0-0.584-19.757-2.201-38.018C133.686,177.39,147.126,160.858,144.834,156.808"/>
<g opacity="0.5">
	<defs>
		<rect id="SVGID_1_" x="110.633" y="177.097" opacity="0.5" width="2.971" height="2.785"/>
	</defs>
	<clipPath id="SVGID_2_">
		<use xlink:href="#SVGID_1_"  overflow="visible"/>
	</clipPath>
	<g clip-path="url(#SVGID_2_)">
		<defs>
			<rect id="SVGID_3_" x="110.633" y="177.097" width="2.971" height="2.785"/>
		</defs>
		<clipPath id="SVGID_4_">
			<use xlink:href="#SVGID_3_"  overflow="visible"/>
		</clipPath>
		<path clip-path="url(#SVGID_4_)" fill="#A67554" d="M110.633,178.397c0,0.743,0.559,1.485,1.299,1.485
			c0.742,0,1.486-0.557,1.486-1.298c0-0.744-0.559-1.487-1.301-1.487C111.191,177.097,110.633,177.656,110.633,178.397"/>
	</g>
</g>
<g opacity="0.5">
	<defs>
		<rect id="SVGID_5_" x="76.277" y="177.284" opacity="0.5" width="2.972" height="2.786"/>
	</defs>
	<clipPath id="SVGID_6_">
		<use xlink:href="#SVGID_5_"  overflow="visible"/>
	</clipPath>
	<g clip-path="url(#SVGID_6_)">
		<defs>
			<rect id="SVGID_7_" x="76.277" y="177.284" width="2.972" height="2.786"/>
		</defs>
		<clipPath id="SVGID_8_">
			<use xlink:href="#SVGID_7_"  overflow="visible"/>
		</clipPath>
		<path clip-path="url(#SVGID_8_)" fill="#A67554" d="M76.277,178.584c0,0.741,0.558,1.485,1.302,1.485
			c0.741,0,1.484-0.557,1.484-1.301c0-0.743-0.557-1.485-1.299-1.485C76.834,177.284,76.277,177.84,76.277,178.584"/>
	</g>
</g>
<path fill="#BC8871" d="M146.475,150.729c17.084,16.898-1.301,45.497-1.486,45.497v0.186c0.371,19.126-10.771,24.326-12.629,26.555
	c-0.369,0.372-13.9,5.776-13.344,4.478"/>
<path fill="#BC8871" d="M146.475,150.729c-6.129,3.897-12.814,5.383-19.688,5.756c0,0-14.67,14.855-8.541,35.099
	c0.186,0-9.285,5.941-8.172,26.184c0,0.185,0-0.185,0-0.185"/>
<path fill="#A67554" d="M98.746,217.952"/>
<path fill="#A67554" d="M146.475,150.729c-6.129,3.897-12.814,5.383-19.688,5.756c0,0-14.67,14.855-8.541,35.099
	c0.186,0-9.658,6.685-8.172,26.184c0.188-17.271,12.072-25.999,11.887-26.184c-6.129-20.243,6.871-27.485,8.541-29.156
	c0,0,9.473-2.973,15.785-6.871c14.672,14.299-3.527,40.67-3.527,40.67c0.928,14.112-3.158,25.44-23.029,22.47
	c-0.184,0,7.986,1.672,7.986,1.672c4.643,1.299,4.643,2.414,4.643,2.414c1.857-2.229,13-7.428,12.629-26.556v-0.187
	C145.174,196.226,163.559,167.627,146.475,150.729"/>
<path fill="#BC8871" d="M65.877,227.069c-0.371-0.186-8.542-3.73-8.913-4.103c-1.857-2.229-13-7.429-12.627-26.555v-0.186
	c0,0-18.387-28.599-1.487-45.497"/>
<path fill="#BC8871" d="M42.85,150.729c6.128,3.897,12.813,5.383,19.686,5.756c0,0,14.67,14.855,8.542,35.099
	c-0.186,0,9.286,5.941,8.171,26.184c0,0.185,0-0.185,0-0.185"/>
<path fill="#A67554" d="M42.85,150.729c6.128,3.897,12.813,5.383,19.686,5.756c0,0,14.67,14.855,8.542,35.099
	c-0.186,0,9.656,6.685,8.171,26.184c-0.186-17.271-12.071-25.999-11.885-26.184c6.128-20.243-6.872-27.485-8.543-29.156
	c0,0-9.47-2.973-15.785-6.871c-14.67,14.299,3.528,40.67,3.528,40.67c-0.929,14.112,3.157,25.44,23.027,22.47
	c0.187,0-7.985,1.672-7.985,1.672c-4.642,1.299-4.642,2.414-4.642,2.414c-1.857-2.229-13-7.428-12.627-26.556v-0.187
	C44.337,196.226,25.95,167.627,42.85,150.729"/>
<path fill="#F26A67" d="M95.59,133.457c4.643,0.559,7.801,5.2,7.242,10.585c-0.555,5.387-4.828,9.285-9.468,8.729
	c-4.644-0.556-7.803-5.2-7.244-10.585C86.863,136.986,91.133,133.086,95.59,133.457"/>
<path fill="#781E17" d="M95.219,136.8c3.527,0.369,5.941,3.527,5.57,7.057c-0.369,3.527-3.527,6.128-7.056,5.756
	c-3.527-0.372-5.941-3.526-5.57-7.056S91.691,136.428,95.219,136.8"/>
<path fill="#BC8871" d="M2.367,117.114c4.271,7.057,12.814,9.843,19.128,6.129c6.313-3.715,7.985-12.627,3.713-19.684
	c-4.271-7.057-12.812-9.843-19.127-5.943C-0.233,101.145-1.905,109.872,2.367,117.114"/>
<path fill="#966847" d="M10.352,114.515c-2.601-2.601-2.786-6.5-0.558-8.728c1.116-1.115,2.601-1.673,4.271-1.486
	c0.557,4.271,1.486,8.17,2.6,12.257C14.623,116.93,12.209,116.372,10.352,114.515"/>
<path fill="#BC8871" d="M175.814,95.945c-1.672,44.755-39.184,79.667-83.752,78.182c-44.754-1.484-79.667-39.184-78.182-83.753
	c1.671-44.756,39.183-79.668,83.752-78.183C142.389,13.863,177.486,51.375,175.814,95.945"/>
<path fill="#A67554" d="M90.391,171.526c-26.742-0.557-49.955-14.67-64.068-34.912c13.928,21.728,37.884,36.584,65.553,37.513
	c34.728,1.3,65.183-19.684,77.812-50.141C169.131,123.801,144.43,172.826,90.391,171.526"/>
<path fill="#BC8871" d="M186.773,117.114c-4.273,7.057-12.816,9.843-19.131,6.129c-6.312-3.715-7.984-12.627-3.713-19.684
	s12.812-9.843,19.129-5.943C189.371,101.145,191.043,109.872,186.773,117.114"/>
<path fill="#966847" d="M178.785,114.515c2.602-2.601,2.785-6.5,0.559-8.728c-1.115-1.115-2.602-1.673-4.273-1.486
	c-0.555,4.271-1.484,8.17-2.598,12.257C174.516,116.93,176.928,116.372,178.785,114.515"/>
<path fill="#010101" d="M63.835,97.987c0,4.086-2.229,7.242-4.828,7.242c-2.6,0-4.829-3.342-4.829-7.428
	c0-4.085,2.229-7.242,4.829-7.242C61.792,90.559,63.835,93.902,63.835,97.987"/>
<path fill="#010101" d="M135.332,97.987c0,4.086-2.23,7.242-4.83,7.242c-2.598,0-4.828-3.342-4.828-7.428
	c0-4.085,2.23-7.242,4.828-7.242C133.287,90.559,135.332,93.902,135.332,97.987"/>
<g opacity="0.5">
	<defs>
		<rect id="SVGID_9_" x="41.736" y="109.316" opacity="0.5" width="20.8" height="11.142"/>
	</defs>
	<clipPath id="SVGID_10_">
		<use xlink:href="#SVGID_9_"  overflow="visible"/>
	</clipPath>
	<g clip-path="url(#SVGID_10_)">
		<defs>
			<rect id="SVGID_11_" x="41.736" y="109.316" width="20.8" height="11.142"/>
		</defs>
		<clipPath id="SVGID_12_">
			<use xlink:href="#SVGID_11_"  overflow="visible"/>
		</clipPath>
		<path clip-path="url(#SVGID_12_)" fill="#BD6272" d="M41.736,113.958c-0.371,2.973,4.086,5.943,9.843,6.5
			c5.756,0.558,10.584-1.486,10.957-4.457c0.371-2.971-4.086-5.943-9.842-6.499C46.75,108.944,41.921,110.801,41.736,113.958"/>
	</g>
</g>
<g opacity="0.5">
	<defs>
		<rect id="SVGID_13_" x="128.832" y="109.316" opacity="0.5" width="20.799" height="11.142"/>
	</defs>
	<clipPath id="SVGID_14_">
		<use xlink:href="#SVGID_13_"  overflow="visible"/>
	</clipPath>
	<g clip-path="url(#SVGID_14_)">
		<defs>
			<rect id="SVGID_15_" x="128.832" y="109.316" width="20.799" height="11.142"/>
		</defs>
		<clipPath id="SVGID_16_">
			<use xlink:href="#SVGID_15_"  overflow="visible"/>
		</clipPath>
		<path clip-path="url(#SVGID_16_)" fill="#BD6272" d="M128.832,113.958c-0.373,2.973,4.086,5.943,9.842,6.5
			c5.756,0.558,10.586-1.486,10.957-4.457s-4.086-5.943-9.844-6.499C134.031,108.944,129.203,110.801,128.832,113.958"/>
	</g>
</g>
<path fill="#966847" d="M94.661,103.002c-3.155,1.484-6.684,3.898-7.798,7.242c-1.114,2.785,0.186,6.127,2.413,8.17
	c1.487,1.301,5.943,3.343,10.214,1.113C87.606,119.343,88.906,108.202,94.661,103.002"/>
<g opacity="0.3">
	<defs>
		<rect id="SVGID_17_" x="50.65" y="75.702" opacity="0.3" width="12.999" height="5.201"/>
	</defs>
	<clipPath id="SVGID_18_">
		<use xlink:href="#SVGID_17_"  overflow="visible"/>
	</clipPath>
	<g clip-path="url(#SVGID_18_)">
		<defs>
			<rect id="SVGID_19_" x="50.65" y="75.702" width="12.999" height="5.201"/>
		</defs>
		<clipPath id="SVGID_20_">
			<use xlink:href="#SVGID_19_"  overflow="visible"/>
		</clipPath>
		<path clip-path="url(#SVGID_20_)" fill="#614B54" d="M63.463,79.602c-0.557,0.742-3.157-2.042-6.499-1.67
			c-3.528,0.556-5.757,3.527-6.314,2.971c-0.558,0,0.929-4.272,5.941-5.201C61.978,75.517,63.835,79.602,63.463,79.602"/>
	</g>
</g>
<g opacity="0.3">
	<defs>
		<rect id="SVGID_21_" x="125.488" y="75.702" opacity="0.3" width="13" height="4.83"/>
	</defs>
	<clipPath id="SVGID_22_">
		<use xlink:href="#SVGID_21_"  overflow="visible"/>
	</clipPath>
	<g clip-path="url(#SVGID_22_)">
		<defs>
			<rect id="SVGID_23_" x="125.488" y="75.702" width="13" height="4.83"/>
		</defs>
		<clipPath id="SVGID_24_">
			<use xlink:href="#SVGID_23_"  overflow="visible"/>
		</clipPath>
		<path clip-path="url(#SVGID_24_)" fill="#614B54" d="M125.488,80.159c0.557,0.559,2.971-2.227,6.502-2.227
			c3.525,0.184,5.939,3.156,6.498,2.6c0.559-0.188-1.115-4.272-6.314-4.83C126.787,75.889,125.117,80.159,125.488,80.159"/>
	</g>
</g>
<path fill="#C64E53" d="M92.434,134.2c-4.457,0.185-7.801,4.457-7.613,9.657c0.186,5.198,3.899,9.286,8.355,9.099
	c4.457-0.186,7.798-4.456,7.613-9.655C100.789,138.099,96.889,134.015,92.434,134.2"/>
<path fill="#781E17" d="M92.62,137.357c-3.344,0.186-5.942,2.971-5.942,6.313c0.186,3.344,2.971,6.129,6.315,5.942
	c3.341-0.185,5.939-2.97,5.939-6.312C98.932,139.956,95.961,137.169,92.62,137.357"/>
<path fill="#523F37" d="M85.006,27.047c-5.572-4.271-7.428-9.47-7.801-13.556c-0.371-3.9-2.972-7.985-6.686-7.428
	c-4.085,0.557-4.271,7.057,0,6.128c0.186,0-0.742-0.185-0.742-0.185c-0.743-0.186-1.485-1.115-1.3-1.856
	c0-0.744,0.557-1.487,1.3-1.673c1.114-0.556,2.785,0.187,3.342,1.115c0.558,0.742,0.93,2.043,0.93,2.971
	c0,2.786,3.714,14.114,14.113,16.714C86.863,28.719,86.12,27.791,85.006,27.047"/>
<path fill="#0C090B" d="M77.391,12.749c0,0-1.67,13.185,10.215,16.342C87.606,29.09,80.176,27.605,77.391,12.749"/>
<path fill="#523F37" d="M96.705,25.934c-1.115-7.057,1.113-11.886,3.527-15.228c2.414-3.157,3.158-7.8,0.188-10.027
	c-3.346-2.416-7.986,2.227-4.273,4.456c0.188,0-0.369-0.557-0.369-0.742c-0.373-0.558-0.188-1.857,0.369-2.229
	c0.559-0.371,1.486-0.557,2.043-0.371c1.115,0.371,1.857,2.042,1.672,3.157c-0.186,0.929-0.742,2.043-1.299,2.786
	c-1.857,2.043-6.872,12.813-0.93,21.727C96.889,28.534,96.889,27.232,96.705,25.934"/>
<path fill="#0C090B" d="M100.789,10.333c0,0-10.212,8.543-3.527,18.943C97.074,29.09,92.805,23.148,100.789,10.333"/>
<path fill="#65B1EF" d="M127.682,43.031c0,3.208-2.584,5.793-5.793,5.793c-3.18,0-5.764-2.585-5.764-5.793
	c0-3.209,5.764-13.143,5.764-13.143S127.682,39.822,127.682,43.031z"/>
<path fill="#65B1EF" d="M148.41,64.601c0,4.153-3.35,7.501-7.5,7.501c-4.111,0-7.459-3.349-7.459-7.501
	c0-4.154,7.459-17.014,7.459-17.014S148.41,60.45,148.41,64.601z"/>
</svg>
