<?xml version="1.0" encoding="utf-8"?>
<!-- Generator: Adobe Illustrator 16.0.4, SVG Export Plug-In . SVG Version: 6.00 Build 0)  -->
<!DOCTYPE svg PUBLIC "-//W3C//DTD SVG 1.1//EN" "http://www.w3.org/Graphics/SVG/1.1/DTD/svg11.dtd">
<svg version="1.1" id="Layer_1" xmlns="http://www.w3.org/2000/svg" xmlns:xlink="http://www.w3.org/1999/xlink" x="0px" y="0px"
	 width="451.313px" height="230.753px" viewBox="0 0 451.313 230.753" enable-background="new 0 0 451.313 230.753"
	 xml:space="preserve">
<path fill="#BC8871" d="M261.614,163.898c-15.783,4.829-74.838-0.185-75.21-0.37c-5.386,11.327-6.43,59.796-6.616,67.225h89.082
	C268.87,230.753,267.186,173.743,261.614,163.898"/>
<g opacity="0.5">
	<defs>
		<rect id="SVGID_1_" x="242.487" y="179.684" opacity="0.5" width="2.971" height="2.785"/>
	</defs>
	<clipPath id="SVGID_2_">
		<use xlink:href="#SVGID_1_"  overflow="visible"/>
	</clipPath>
	<g clip-path="url(#SVGID_2_)">
		<defs>
			<rect id="SVGID_3_" x="242.487" y="179.684" width="2.971" height="2.785"/>
		</defs>
		<clipPath id="SVGID_4_">
			<use xlink:href="#SVGID_3_"  overflow="visible"/>
		</clipPath>
		<path clip-path="url(#SVGID_4_)" fill="#A67554" d="M242.487,180.983c0,0.743,0.559,1.485,1.299,1.485
			c0.742,0,1.486-0.557,1.486-1.298c0-0.744-0.559-1.487-1.301-1.487C243.045,179.684,242.487,180.242,242.487,180.983"/>
	</g>
</g>
<g opacity="0.5">
	<defs>
		<rect id="SVGID_5_" x="208.131" y="179.87" opacity="0.5" width="2.972" height="2.786"/>
	</defs>
	<clipPath id="SVGID_6_">
		<use xlink:href="#SVGID_5_"  overflow="visible"/>
	</clipPath>
	<g clip-path="url(#SVGID_6_)">
		<defs>
			<rect id="SVGID_7_" x="208.131" y="179.87" width="2.972" height="2.786"/>
		</defs>
		<clipPath id="SVGID_8_">
			<use xlink:href="#SVGID_7_"  overflow="visible"/>
		</clipPath>
		<path clip-path="url(#SVGID_8_)" fill="#A67554" d="M208.131,181.171c0,0.741,0.558,1.485,1.302,1.485
			c0.741,0,1.484-0.557,1.484-1.301c0-0.743-0.557-1.485-1.299-1.485C208.688,179.87,208.131,180.427,208.131,181.171"/>
	</g>
</g>
<path fill="#BC8871" d="M278.329,153.315c17.084,16.898-1.301,45.497-1.486,45.497v0.186c0.371,19.126-10.771,24.326-12.629,26.555
	c-0.369,0.372-13.9,5.776-13.344,4.478"/>
<path fill="#BC8871" d="M278.329,153.315c-6.129,3.897-12.814,5.383-19.688,5.756c0,0-14.67,14.855-8.541,35.099
	c0.186,0-9.285,5.941-8.172,26.184c0,0.185,0-0.185,0-0.185"/>
<path fill="#A67554" d="M230.6,220.538"/>
<path fill="#A67554" d="M278.329,153.315c-6.129,3.897-12.814,5.383-19.688,5.756c0,0-14.67,14.855-8.541,35.099
	c0.186,0-9.658,6.685-8.172,26.184c0.188-17.271,12.072-25.999,11.887-26.184c-6.129-20.243,6.871-27.485,8.541-29.156
	c0,0,9.473-2.973,15.785-6.871c14.672,14.299-3.527,40.67-3.527,40.67c0.928,14.112-3.158,25.44-23.029,22.47
	c-0.184,0,7.986,1.672,7.986,1.672c4.643,1.299,4.643,2.414,4.643,2.414c1.857-2.229,13-7.428,12.629-26.556v-0.187
	C277.028,198.812,295.413,170.214,278.329,153.315"/>
<path fill="#BC8871" d="M197.731,229.655c-0.371-0.186-8.542-3.73-8.913-4.103c-1.857-2.229-13-7.429-12.627-26.555v-0.186
	c0,0-18.387-28.599-1.487-45.497"/>
<path fill="#BC8871" d="M174.704,153.315c6.128,3.897,12.813,5.383,19.686,5.756c0,0,14.67,14.855,8.542,35.099
	c-0.186,0,9.286,5.941,8.171,26.184c0,0.185,0-0.185,0-0.185"/>
<path fill="#A67554" d="M174.704,153.315c6.128,3.897,12.813,5.383,19.686,5.756c0,0,14.67,14.855,8.542,35.099
	c-0.186,0,9.656,6.685,8.171,26.184c-0.186-17.271-12.071-25.999-11.885-26.184c6.128-20.243-6.872-27.485-8.543-29.156
	c0,0-9.47-2.973-15.785-6.871c-14.67,14.299,3.528,40.67,3.528,40.67c-0.929,14.112,3.157,25.44,23.027,22.47
	c0.187,0-7.985,1.672-7.985,1.672c-4.642,1.299-4.642,2.414-4.642,2.414c-1.857-2.229-13-7.428-12.627-26.556v-0.187
	C176.191,198.812,157.804,170.214,174.704,153.315"/>
<path fill="#F26A67" d="M227.444,136.043c4.643,0.559,7.801,5.2,7.242,10.585c-0.555,5.387-4.828,9.285-9.468,8.729
	c-4.644-0.556-7.803-5.2-7.244-10.585C218.717,139.572,222.987,135.673,227.444,136.043"/>
<path fill="#781E17" d="M227.073,139.387c3.527,0.369,5.941,3.527,5.57,7.057c-0.369,3.527-3.527,6.128-7.056,5.756
	c-3.527-0.372-5.941-3.526-5.57-7.056S223.545,139.015,227.073,139.387"/>
<path fill="#BC8871" d="M134.221,119.7c4.271,7.057,12.814,9.843,19.128,6.129c6.313-3.715,7.985-12.627,3.713-19.684
	c-4.271-7.057-12.812-9.843-19.127-5.943C131.621,103.731,129.949,112.458,134.221,119.7"/>
<path fill="#966847" d="M142.206,117.102c-2.601-2.601-2.786-6.5-0.558-8.728c1.116-1.115,2.601-1.673,4.271-1.486
	c0.557,4.271,1.486,8.17,2.6,12.257C146.477,119.517,144.063,118.958,142.206,117.102"/>
<path fill="#BC8871" d="M307.668,98.531c-1.672,44.755-39.184,79.667-83.752,78.182c-44.754-1.484-79.667-39.184-78.182-83.753
	c1.671-44.756,39.183-79.668,83.752-78.183C274.243,16.45,309.34,53.962,307.668,98.531"/>
<path fill="#A67554" d="M222.245,174.112c-26.742-0.557-49.955-14.67-64.068-34.912c13.928,21.728,37.884,36.584,65.553,37.513
	c34.728,1.3,65.183-19.684,77.812-50.141C300.985,126.388,276.284,175.412,222.245,174.112"/>
<path fill="#BC8871" d="M318.627,119.7c-4.273,7.057-12.816,9.843-19.131,6.129c-6.312-3.715-7.984-12.627-3.713-19.684
	s12.812-9.843,19.129-5.943C321.225,103.731,322.897,112.458,318.627,119.7"/>
<path fill="#966847" d="M310.639,117.102c2.602-2.601,2.785-6.5,0.559-8.728c-1.115-1.115-2.602-1.673-4.273-1.486
	c-0.555,4.271-1.484,8.17-2.598,12.257C306.37,119.517,308.782,118.958,310.639,117.102"/>
<path fill="#010101" d="M195.689,100.573c0,4.086-2.229,7.242-4.828,7.242c-2.6,0-4.829-3.342-4.829-7.428
	c0-4.085,2.229-7.242,4.829-7.242C193.646,93.146,195.689,96.488,195.689,100.573"/>
<path fill="#010101" d="M267.186,100.573c0,4.086-2.23,7.242-4.83,7.242c-2.598,0-4.828-3.342-4.828-7.428
	c0-4.085,2.23-7.242,4.828-7.242C265.141,93.146,267.186,96.488,267.186,100.573"/>
<g opacity="0.5">
	<defs>
		<rect id="SVGID_9_" x="173.59" y="111.902" opacity="0.5" width="20.8" height="11.142"/>
	</defs>
	<clipPath id="SVGID_10_">
		<use xlink:href="#SVGID_9_"  overflow="visible"/>
	</clipPath>
	<g clip-path="url(#SVGID_10_)">
		<defs>
			<rect id="SVGID_11_" x="173.59" y="111.902" width="20.8" height="11.142"/>
		</defs>
		<clipPath id="SVGID_12_">
			<use xlink:href="#SVGID_11_"  overflow="visible"/>
		</clipPath>
		<path clip-path="url(#SVGID_12_)" fill="#BD6272" d="M173.59,116.544c-0.371,2.973,4.086,5.943,9.843,6.5
			c5.756,0.558,10.584-1.486,10.957-4.457c0.371-2.971-4.086-5.943-9.842-6.499C178.604,111.53,173.775,113.388,173.59,116.544"/>
	</g>
</g>
<g opacity="0.5">
	<defs>
		<rect id="SVGID_13_" x="260.686" y="111.902" opacity="0.5" width="20.799" height="11.142"/>
	</defs>
	<clipPath id="SVGID_14_">
		<use xlink:href="#SVGID_13_"  overflow="visible"/>
	</clipPath>
	<g clip-path="url(#SVGID_14_)">
		<defs>
			<rect id="SVGID_15_" x="260.686" y="111.902" width="20.799" height="11.142"/>
		</defs>
		<clipPath id="SVGID_16_">
			<use xlink:href="#SVGID_15_"  overflow="visible"/>
		</clipPath>
		<path clip-path="url(#SVGID_16_)" fill="#BD6272" d="M260.686,116.544c-0.373,2.973,4.086,5.943,9.842,6.5
			c5.756,0.558,10.586-1.486,10.957-4.457s-4.086-5.943-9.844-6.499C265.885,111.53,261.057,113.388,260.686,116.544"/>
	</g>
</g>
<path fill="#966847" d="M226.515,105.589c-3.155,1.484-6.684,3.898-7.798,7.242c-1.114,2.785,0.186,6.127,2.413,8.17
	c1.487,1.301,5.943,3.343,10.214,1.113C219.46,121.93,220.76,110.788,226.515,105.589"/>
<g opacity="0.3">
	<defs>
		<rect id="SVGID_17_" x="182.504" y="78.289" opacity="0.3" width="12.999" height="5.201"/>
	</defs>
	<clipPath id="SVGID_18_">
		<use xlink:href="#SVGID_17_"  overflow="visible"/>
	</clipPath>
	<g clip-path="url(#SVGID_18_)">
		<defs>
			<rect id="SVGID_19_" x="182.504" y="78.289" width="12.999" height="5.201"/>
		</defs>
		<clipPath id="SVGID_20_">
			<use xlink:href="#SVGID_19_"  overflow="visible"/>
		</clipPath>
		<path clip-path="url(#SVGID_20_)" fill="#614B54" d="M195.317,82.188c-0.557,0.742-3.157-2.042-6.499-1.67
			c-3.528,0.556-5.757,3.527-6.314,2.971c-0.558,0,0.929-4.272,5.941-5.201C193.832,78.103,195.689,82.188,195.317,82.188"/>
	</g>
</g>
<g opacity="0.3">
	<defs>
		<rect id="SVGID_21_" x="257.342" y="78.289" opacity="0.3" width="13" height="4.83"/>
	</defs>
	<clipPath id="SVGID_22_">
		<use xlink:href="#SVGID_21_"  overflow="visible"/>
	</clipPath>
	<g clip-path="url(#SVGID_22_)">
		<defs>
			<rect id="SVGID_23_" x="257.342" y="78.289" width="13" height="4.83"/>
		</defs>
		<clipPath id="SVGID_24_">
			<use xlink:href="#SVGID_23_"  overflow="visible"/>
		</clipPath>
		<path clip-path="url(#SVGID_24_)" fill="#614B54" d="M257.342,82.745c0.557,0.559,2.971-2.227,6.502-2.227
			c3.525,0.184,5.939,3.156,6.498,2.6c0.559-0.188-1.115-4.272-6.314-4.83C258.641,78.475,256.971,82.745,257.342,82.745"/>
	</g>
</g>
<path fill="#C64E53" d="M224.288,136.786c-4.457,0.185-7.801,4.457-7.613,9.657c0.186,5.198,3.899,9.286,8.355,9.099
	c4.457-0.186,7.798-4.456,7.613-9.655C232.643,140.686,228.743,136.602,224.288,136.786"/>
<path fill="#781E17" d="M224.474,139.943c-3.344,0.186-5.942,2.971-5.942,6.313c0.186,3.344,2.971,6.129,6.315,5.942
	c3.341-0.185,5.939-2.97,5.939-6.312C230.786,142.542,227.815,139.756,224.474,139.943"/>
<path fill="#523F37" d="M216.86,29.633c-5.572-4.271-7.428-9.47-7.801-13.556c-0.371-3.9-2.972-7.985-6.686-7.428
	c-4.085,0.557-4.271,7.057,0,6.128c0.186,0-0.742-0.185-0.742-0.185c-0.743-0.186-1.485-1.115-1.3-1.856
	c0-0.744,0.557-1.487,1.3-1.673c1.114-0.556,2.785,0.187,3.342,1.115c0.558,0.742,0.93,2.043,0.93,2.971
	c0,2.786,3.714,14.114,14.113,16.714C218.717,31.306,217.974,30.377,216.86,29.633"/>
<path fill="#0C090B" d="M209.245,15.335c0,0-1.67,13.185,10.215,16.342C219.46,31.677,212.03,30.191,209.245,15.335"/>
<path fill="#523F37" d="M228.559,28.52c-1.115-7.057,1.113-11.886,3.527-15.228c2.414-3.157,3.158-7.8,0.188-10.027
	c-3.346-2.416-7.986,2.227-4.273,4.456c0.188,0-0.369-0.557-0.369-0.742c-0.373-0.558-0.188-1.857,0.369-2.229
	c0.559-0.371,1.486-0.557,2.043-0.371c1.115,0.371,1.857,2.042,1.672,3.157c-0.186,0.929-0.742,2.043-1.299,2.786
	c-1.857,2.043-6.872,12.813-0.93,21.727C228.743,31.12,228.743,29.819,228.559,28.52"/>
<path fill="#0C090B" d="M232.643,12.92c0,0-10.212,8.543-3.527,18.943C228.928,31.677,224.659,25.734,232.643,12.92"/>
<path fill="#65B1EF" d="M259.536,45.618c0,3.208-2.584,5.793-5.793,5.793c-3.18,0-5.764-2.585-5.764-5.793
	c0-3.209,5.764-13.143,5.764-13.143S259.536,42.409,259.536,45.618z"/>
<path fill="#65B1EF" d="M280.264,67.188c0,4.153-3.35,7.501-7.5,7.501c-4.111,0-7.459-3.349-7.459-7.501
	c0-4.154,7.459-17.014,7.459-17.014S280.264,63.037,280.264,67.188z"/>
<path fill="#3BE29A" d="M70.578,1.05c0,0,4.1,7.896,19.913,17.353c15.818,9.451,20.876,26.459,20.876,26.459
	c4.477,29.898,4.889,33.481,27.156,63.363c0,0,15.216,15.344,7.068,26.312c0,0,4.299,4.115,13.855,9.25
	c0,0,45.275,25.252,43.651,39.75c0,0-1.499,10.156-15.334,4.54c0,0-55.484-23.558-83.883-41.29c0,0-9.283-6.537-35.327-14.893
	c0,0-7.31-4.514-7.788-16.082c0,0-6.813-60.302-30.578-75.68L70.578,1.05z"/>
<path fill="#0A995B" d="M142.676,138.564c-12.713,8.565-33.663-19.165-33.663-19.165c-5.189-2.784-9.872-8.693-9.872-8.693
	c-1.791-5.765-16.588-29.277-16.588-29.277c-10.33-12.226-10.062-22.172-10.062-22.172s-2.364,8.919,6.447,21.467
	c0,0,15.019,20.224,13.535,28.368c0,0,3.554,9.932,14.336,13.509c0,0,5.562,2.554,8.956,7.593c0,0,11.787,14.385,22.353,11.441
	L142.676,138.564z"/>
<polygon fill="#FFFFFF" points="0,0 13.819,58.467 85.571,15.267 84.718,0 "/>
<path fill="#3BE29A" d="M421.124,40.132c-23.764,15.378-30.578,75.68-30.578,75.68c-0.477,11.568-7.787,16.082-7.787,16.082
	c-26.045,8.355-35.326,14.893-35.326,14.893c-28.4,17.732-83.885,41.29-83.885,41.29c-13.834,5.616-15.334-4.54-15.334-4.54
	c-1.623-14.498,43.652-39.75,43.652-39.75c9.557-5.135,13.855-9.25,13.855-9.25c-8.148-10.969,7.068-26.312,7.068-26.312
	c22.268-29.882,22.68-33.464,27.156-63.363c0,0,5.057-17.008,20.875-26.459C376.633,8.946,380.735,1.05,380.735,1.05L421.124,40.132
	z"/>
<path fill="#0A995B" d="M313.194,141.635c10.564,2.943,22.352-11.441,22.352-11.441c3.395-5.039,8.957-7.593,8.957-7.593
	c10.781-3.577,14.336-13.509,14.336-13.509c-1.484-8.145,13.535-28.368,13.535-28.368c8.811-12.548,6.447-21.467,6.447-21.467
	s0.268,9.947-10.062,22.172c0,0-14.797,23.513-16.588,29.277c0,0-4.682,5.909-9.871,8.693c0,0-20.949,27.73-33.664,19.165
	L313.194,141.635z"/>
<polygon fill="#FFFFFF" points="366.594,0 365.741,15.267 437.493,58.467 451.313,0 "/>
</svg>
