<?xml version="1.0" encoding="utf-8"?>
<!-- Generator: Adobe Illustrator 16.0.4, SVG Export Plug-In . SVG Version: 6.00 Build 0)  -->
<!DOCTYPE svg PUBLIC "-//W3C//DTD SVG 1.1//EN" "http://www.w3.org/Graphics/SVG/1.1/DTD/svg11.dtd">
<svg version="1.1" id="Layer_1" xmlns="http://www.w3.org/2000/svg" xmlns:xlink="http://www.w3.org/1999/xlink" x="0px" y="0px"
	 width="400px" height="560px" viewBox="0 0 400 560" enable-background="new 0 0 400 560" xml:space="preserve">
<g>
	<path fill="#7DD9FF" d="M42.497,501.725v49.951c0,4.598,3.728,8.324,8.325,8.324c4.597,0,8.324-3.728,8.324-8.324v-72.15
		L42.497,501.725z"/>
	<path fill="#7DD9FF" d="M342.2,479.524v72.15c0,4.598,3.726,8.324,8.324,8.324s8.325-3.728,8.325-8.324v-49.95L342.2,479.524z"/>
</g>
<path fill="#FFB4A9" d="M350.525,97.126c-4.6,0-8.324,3.728-8.324,8.325c0,50.495-41.08,91.575-91.576,91.575h-49.95v16.65h49.95
	c59.677,0,108.227-48.549,108.227-108.226C358.85,100.854,355.124,97.126,350.525,97.126z"/>
<path fill="#7DD9FF" d="M250.625,235.2v-29.849c0-12.261-9.939-22.2-22.2-22.2h-33.3v166.501h72.15v-77.231
	C267.274,257.631,260.842,244.347,250.625,235.2z"/>
<path fill="#A8E5FF" d="M195.125,183.152h-44.401l-33.3,166.501h99.901V205.352C217.324,193.091,207.385,183.152,195.125,183.152z"
	/>
<circle fill="#FF8646" cx="200.674" cy="24.975" r="24.975"/>
<path fill="#FFB4A9" d="M216.316,82.748l-15.643,67.104c27.587,0,49.951-22.364,49.951-49.951L216.316,82.748z"/>
<path fill="#FFD9D4" d="M217.324,99.901c0-6.026-0.356-11.804-1.008-17.153l-45.615-22.806
	c-12.129,9.114-19.978,23.62-19.978,39.959c0,27.586,22.364,49.951,49.95,49.951C209.869,149.852,217.324,127.487,217.324,99.901z"
	/>
<path fill="#FF6337" d="M200.674,49.95l16.537,44.214c10.449,3.709,21.693,5.737,33.412,5.737
	C250.625,72.313,228.261,49.95,200.674,49.95z"/>
<path fill="#FF8646" d="M200.674,49.95c-11.247,0-21.625,3.719-29.973,9.993c11.691,15.562,27.824,27.591,46.51,34.223
	C216.264,69.281,209.222,49.95,200.674,49.95z"/>
<path fill="#FFF0D3" d="M84.123,199.802v83.251c0,18.393,14.908,33.3,33.3,33.3c18.391,0,33.3-14.908,33.3-33.3v-16.65
	L84.123,199.802z"/>
<path fill="#FFD9D4" d="M100.773,291.377h-33.3c-4.598,0-8.324-3.727-8.324-8.324c0-4.597,3.728-8.325,8.324-8.325h33.3
	c4.598,0,8.325,3.728,8.325,8.325C109.098,287.65,105.371,291.377,100.773,291.377z"/>
<path fill="#FFE2A8" d="M84.123,183.152v16.65c0,36.783,29.818,66.601,66.601,66.601v-83.25H84.123z"/>
<path fill="#FFB4A9" d="M117.423,149.852l-11.101,33.3l11.101,33.3c18.391,0,33.3-14.909,33.3-33.3
	C150.724,164.76,135.813,149.852,117.423,149.852z"/>
<path fill="#FFD9D4" d="M84.123,183.152c0,18.391,14.909,33.3,33.3,33.3v-66.601C99.032,149.852,84.123,164.76,84.123,183.152z"/>
<polygon fill="#7DD9FF" points="325.55,501.725 358.85,501.725 358.85,451.774 292.249,418.475 "/>
<g>
	<polygon fill="#A8E5FF" points="42.497,451.774 42.497,501.725 325.55,501.725 325.55,382.953 	"/>
	<path fill="#A8E5FF" d="M325.55,316.353h-33.301l33.301,135.422h33.3V349.653C358.85,331.339,343.865,316.353,325.55,316.353z"/>
</g>
<path fill="#DBF4FF" d="M292.249,316.353H75.797c-18.315,0-33.3,14.986-33.3,33.301v102.121H325.55V349.653
	C325.55,331.339,310.565,316.353,292.249,316.353z"/>
</svg>
