<?xml version="1.0" encoding="iso-8859-1"?>
<!-- Generator: Adobe Illustrator 19.0.0, SVG Export Plug-In . SVG Version: 6.00 Build 0)  -->
<svg version="1.1" id="Layer_1" xmlns="http://www.w3.org/2000/svg" xmlns:xlink="http://www.w3.org/1999/xlink" x="0px" y="0px"
	 viewBox="0 0 512 512" style="enable-background:new 0 0 512 512;" xml:space="preserve">
<path style="fill:#313133;" d="M437.022,74.978C388.675,26.633,324.393,0.006,256.016,0c-0.008,0-0.014,0-0.02,0
	C114.841,0.008,0.002,114.844,0.002,255.992C0.009,397.162,114.849,512.008,255.997,512c0.006,0,0.012,0,0.019,0
	c141.15-0.011,255.981-114.849,255.983-256.005C512.002,187.616,485.375,123.329,437.022,74.978z"/>
<path d="M256.016,256.002c0.005,0,0.011,0,0.017,0c4.276-0.005,8.352-0.873,12.057-2.442c0.002,0,0.003-0.002,0.006-0.003
	c0.925-0.391,1.828-0.827,2.703-1.303c0.092-0.048,0.172-0.109,0.261-0.158c0.785-0.436,1.556-0.895,2.296-1.396
	c0.133-0.09,0.254-0.197,0.386-0.287c0.683-0.479,1.359-0.968,2.001-1.499c0.217-0.178,0.413-0.382,0.624-0.565
	c0.537-0.469,1.075-0.934,1.579-1.437c0.279-0.279,0.527-0.586,0.794-0.875c0.408-0.438,0.825-0.866,1.206-1.327
	c0.338-0.41,0.638-0.849,0.954-1.274c0.276-0.372,0.573-0.729,0.832-1.114c0.292-0.43,0.541-0.887,0.811-1.333
	c0.247-0.41,0.515-0.804,0.743-1.226c0.239-0.441,0.438-0.908,0.656-1.362c0.217-0.45,0.455-0.887,0.65-1.348
	c0.222-0.524,0.396-1.072,0.59-1.61c0.149-0.416,0.321-0.818,0.455-1.241c0.172-0.557,0.296-1.137,0.439-1.71
	c0.104-0.422,0.236-0.835,0.324-1.263c0.133-0.65,0.211-1.319,0.303-1.981c0.05-0.368,0.13-0.728,0.166-1.098
	c0.105-1.044,0.161-2.102,0.161-3.173c0-1.072-0.054-2.129-0.161-3.173c-0.043-0.434-0.133-0.856-0.196-1.285
	c-0.087-0.6-0.154-1.207-0.275-1.795c-0.088-0.428-0.22-0.841-0.324-1.263c-0.143-0.571-0.267-1.151-0.439-1.71
	c-0.121-0.385-0.281-0.751-0.416-1.131c-0.203-0.576-0.391-1.161-0.628-1.721c-0.172-0.408-0.385-0.793-0.574-1.192
	c-0.241-0.509-0.464-1.027-0.732-1.519c-0.228-0.42-0.496-0.816-0.743-1.226c-0.27-0.445-0.52-0.903-0.811-1.333
	c-0.259-0.385-0.555-0.742-0.832-1.114c-0.316-0.425-0.616-0.866-0.954-1.274c-0.38-0.462-0.799-0.889-1.204-1.327
	c-0.268-0.29-0.517-0.597-0.796-0.875c-0.503-0.503-1.043-0.968-1.579-1.435c-0.213-0.185-0.408-0.388-0.624-0.568
	c-0.642-0.529-1.319-1.018-2-1.496c-0.133-0.093-0.254-0.2-0.388-0.29c-0.815-0.551-1.66-1.064-2.529-1.538
	c-0.009-0.005-0.017-0.011-0.028-0.017c-0.877-0.476-1.78-0.912-2.704-1.305c-0.003,0-0.005-0.002-0.006-0.003
	c-3.707-1.569-7.782-2.436-12.057-2.441c-0.006,0-0.012-0.002-0.017-0.002v62.054H256.016z"/>
<circle cx="193.938" cy="131.878" r="31.03"/>
<circle cx="318.059" cy="131.878" r="31.03"/>
<path d="M256.016,193.943c-0.005,0-0.011,0-0.016,0c-17.139,0-31.03,13.892-31.03,31.03s13.891,31.03,31.03,31.03
	c0.005,0,0.011-0.002,0.016-0.002V193.943z"/>
<g>
	<path style="fill:#313133;" d="M270.798,252.253c-0.875,0.476-1.778,0.912-2.703,1.303
		C269.02,253.165,269.923,252.729,270.798,252.253z"/>
	<path style="fill:#313133;" d="M273.357,250.699c-0.74,0.501-1.513,0.96-2.296,1.396
		C271.844,251.659,272.615,251.2,273.357,250.699z"/>
	<path style="fill:#313133;" d="M268.089,253.559c-3.707,1.57-7.782,2.437-12.057,2.442
		C260.307,255.997,264.383,255.13,268.089,253.559z"/>
	<path style="fill:#313133;" d="M280.902,206.513c0.276,0.372,0.573,0.729,0.832,1.114
		C281.474,207.241,281.178,206.886,280.902,206.513z"/>
	<path style="fill:#313133;" d="M278.742,203.911c0.406,0.438,0.824,0.866,1.204,1.327
		C279.567,204.775,279.148,204.35,278.742,203.911z"/>
	<path style="fill:#313133;" d="M282.543,208.96c0.247,0.41,0.515,0.805,0.743,1.226
		C283.058,209.764,282.791,209.368,282.543,208.96z"/>
	<path style="fill:#313133;" d="M276.368,201.601c0.537,0.467,1.075,0.932,1.579,1.435
		C277.443,202.532,276.905,202.067,276.368,201.601z"/>
	<path style="fill:#313133;" d="M284.02,211.705c0.189,0.399,0.402,0.784,0.574,1.192
		C284.42,212.488,284.209,212.103,284.02,211.705z"/>
	<path style="fill:#313133;" d="M275.744,248.913c-0.642,0.531-1.319,1.019-2.001,1.499
		C274.426,249.932,275.102,249.442,275.744,248.913z"/>
	<path style="fill:#313133;" d="M268.096,196.388c0.925,0.393,1.828,0.828,2.704,1.305
		C269.923,197.217,269.02,196.781,268.096,196.388z"/>
	<path style="fill:#313133;" d="M273.745,199.536c0.681,0.478,1.358,0.967,2,1.496C275.102,200.504,274.426,200.014,273.745,199.536
		z"/>
	<path style="fill:#313133;" d="M285.223,214.617c0.135,0.379,0.293,0.745,0.416,1.131
		C285.516,215.363,285.358,214.995,285.223,214.617z"/>
	<path style="fill:#313133;" d="M270.828,197.71c0.869,0.475,1.714,0.987,2.529,1.538
		C272.541,198.695,271.695,198.183,270.828,197.71z"/>
	<path style="fill:#313133;" d="M256.033,193.944c4.276,0.005,8.352,0.874,12.057,2.441
		C264.383,194.816,260.307,193.949,256.033,193.944z"/>
	<path style="fill:#313133;" d="M286.676,220.516c0.062,0.428,0.152,0.85,0.195,1.285
		C286.827,221.366,286.738,220.944,286.676,220.516z"/>
	<path style="fill:#313133;" d="M281.733,242.32c-0.259,0.385-0.555,0.742-0.832,1.114
		C281.178,243.06,281.474,242.705,281.733,242.32z"/>
	<path style="fill:#313133;" d="M277.948,246.911c-0.503,0.503-1.043,0.968-1.579,1.437
		C276.905,247.879,277.443,247.414,277.948,246.911z"/>
	<path style="fill:#313133;" d="M283.288,239.76c-0.228,0.42-0.496,0.816-0.743,1.226
		C282.791,240.578,283.058,240.182,283.288,239.76z"/>
	<path style="fill:#313133;" d="M279.947,244.708c-0.38,0.462-0.799,0.889-1.206,1.327
		C279.148,245.597,279.567,245.17,279.947,244.708z"/>
	<path style="fill:#313133;" d="M286.402,231.226c-0.088,0.428-0.22,0.841-0.324,1.263
		C286.181,232.066,286.313,231.655,286.402,231.226z"/>
	<path style="fill:#313133;" d="M286.872,228.146c-0.036,0.371-0.116,0.731-0.166,1.098
		C286.754,228.877,286.833,228.517,286.872,228.146z"/>
	<path style="fill:#313133;" d="M285.638,234.198c-0.133,0.424-0.306,0.825-0.455,1.241
		C285.331,235.025,285.505,234.622,285.638,234.198z"/>
	<path style="fill:#313133;" d="M284.594,237.05c-0.195,0.461-0.433,0.898-0.65,1.348
		C284.16,237.948,284.399,237.511,284.594,237.05z"/>
	<path style="fill:#313133;" d="M286.077,217.456c0.104,0.424,0.236,0.835,0.324,1.263
		C286.313,218.291,286.181,217.88,286.077,217.456z"/>
</g>
<path style="fill:#222224;" d="M255.997,512c0.006,0,0.012,0,0.019,0V256.002c-0.005,0-0.011,0.002-0.016,0.002
	c-17.139,0-31.03-13.892-31.03-31.03s13.891-31.03,31.03-31.03c0.005,0,0.011,0,0.016,0V0c-0.008,0-0.014,0-0.02,0
	C114.841,0.008,0.002,114.844,0.002,255.992C0.009,397.162,114.849,512.008,255.997,512z M193.94,100.853
	c17.138,0,31.032,13.894,31.032,31.03c0,17.138-13.894,31.03-31.032,31.03c-17.139,0-31.03-13.892-31.03-31.03
	C162.91,114.746,176.8,100.853,193.94,100.853z"/>
<g>
</g>
<g>
</g>
<g>
</g>
<g>
</g>
<g>
</g>
<g>
</g>
<g>
</g>
<g>
</g>
<g>
</g>
<g>
</g>
<g>
</g>
<g>
</g>
<g>
</g>
<g>
</g>
<g>
</g>
</svg>
