<?xml version="1.0" encoding="utf-8"?>
<!-- Generator: Adobe Illustrator 16.0.4, SVG Export Plug-In . SVG Version: 6.00 Build 0)  -->
<!DOCTYPE svg PUBLIC "-//W3C//DTD SVG 1.1//EN" "http://www.w3.org/Graphics/SVG/1.1/DTD/svg11.dtd">
<svg version="1.1" id="Capa_1" xmlns="http://www.w3.org/2000/svg" xmlns:xlink="http://www.w3.org/1999/xlink" x="0px" y="0px"
	 width="900px" height="806.896px" viewBox="0 46.552 900 806.896" enable-background="new 0 46.552 900 806.896"
	 xml:space="preserve">
<path fill="#805333" d="M840.135,853.448H59.866C26.798,853.448,0,826.65,0,793.583V277.107c0-33.067,26.798-59.866,59.866-59.866
	h780.269c33.066,0,59.865,26.798,59.865,59.866v516.476C900,826.65,873.201,853.448,840.135,853.448z"/>
<rect x="155.172" y="170.689" fill="#CB8252" width="93.104" height="682.759"/>
<rect x="651.725" y="170.689" fill="#CB8252" width="93.103" height="682.759"/>
<path fill="#BDC3C7" d="M450,46.552c-85.562,0-155.172,69.61-155.172,155.172v15.517h62.069v-15.517
	c0-51.207,41.896-93.104,93.104-93.104s93.104,41.896,93.104,93.104v15.517h62.069v-15.517
	C605.173,116.162,535.562,46.552,450,46.552z"/>
<rect x="304.719" y="566.171" transform="matrix(-0.9213 -0.3888 0.3888 -0.9213 482.7451 1324.219)" fill="#71C285" width="141.282" height="94.187"/>
<polygon fill="#E1705C" points="356.896,465.518 356.896,554.354 458.798,597.352 448.945,620.689 589.655,620.689 589.655,465.518 
	"/>
<polygon fill="#F0C419" points="551.731,465.518 589.655,447.812 535.903,332.689 363.228,413.317 387.59,465.518 "/>
<path fill="#E4C05C" d="M900,323.689v-46.583c0-33.067-26.799-59.866-59.865-59.866h-46.583
	C803.219,271.396,845.845,314.022,900,323.689z"/>
<path fill="#E4C05C" d="M900,793.583V747c-54.155,9.667-96.781,52.293-106.448,106.448h46.583
	C873.201,853.448,900,826.65,900,793.583z"/>
<path fill="#E4C05C" d="M0,323.689c54.155-9.667,96.781-52.293,106.448-106.448H59.866C26.798,217.241,0,244.04,0,277.107V323.689z"
	/>
<path fill="#E4C05C" d="M0,747v46.583c0,33.067,26.798,59.865,59.866,59.865h46.583C96.781,799.293,54.155,756.667,0,747z"/>
</svg>
