<?xml version="1.0" encoding="utf-8"?>
<!-- Generator: Adobe Illustrator 16.0.4, SVG Export Plug-In . SVG Version: 6.00 Build 0)  -->
<!DOCTYPE svg PUBLIC "-//W3C//DTD SVG 1.1//EN" "http://www.w3.org/Graphics/SVG/1.1/DTD/svg11.dtd">
<svg version="1.1" id="Layer_1" xmlns="http://www.w3.org/2000/svg" xmlns:xlink="http://www.w3.org/1999/xlink" x="0px" y="0px"
	 width="622.282px" height="900px" viewBox="138.86 0 622.282 900" enable-background="new 138.86 0 622.282 900"
	 xml:space="preserve">
<path fill="#F7CBA4" d="M681.587,693.598v206.396H218.415V693.598c0-57.957,35.612-107.626,86.133-128.287
	c8.207-3.352,16.82-5.952,25.738-7.678h239.426c8.918,1.726,17.531,4.327,25.738,7.678
	C645.975,585.972,681.587,635.641,681.587,693.598z"/>
<g>
	<polyline fill="#E0B394" points="310.847,767.949 310.847,690.267 336.239,773.557 	"/>
	<polyline fill="#E0B394" points="589.155,767.949 589.155,690.267 563.762,773.557 	"/>
</g>
<path fill="#B09ADC" d="M589.155,767.949v132.046H310.847V767.949c42.294-32.848,67.932-82.497,70.39-135.721
	c0.161-2.844,0.223-5.688,0.223-8.532v-66.062h137.103v66.062c0,2.845,0.062,5.688,0.224,8.512
	C521.244,685.433,546.882,735.102,589.155,767.949z"/>
<g>
	<path fill="#E0B394" d="M389.21,557.631h-58.912c-63.747,12.412-111.872,68.581-111.872,135.965V900h58.911V693.596
		C277.337,626.214,325.463,570.043,389.21,557.631z"/>
	<path fill="#E0B394" d="M595.454,565.312l-76.891,55.885c-40.873,29.699-96.229,29.699-137.123,0l-76.891-55.885
		c8.207-3.353,16.82-5.952,25.738-7.678h239.426C578.633,559.36,587.246,561.96,595.454,565.312z"/>
</g>
<path fill="#8381B5" d="M518.562,557.633v63.564c-40.872,29.699-96.21,29.699-137.103,0.021v-63.583L518.562,557.633
	L518.562,557.633z"/>
<path fill="#F7CBA4" d="M674.436,436.194c-8.492,19.259-21.716,37.644-31.915,54.198c-10.36,16.861-24.032,31.792-40.568,43.798
	l-83.391,60.599c-40.872,29.7-96.229,29.7-137.123,0l-83.391-60.599c-16.455-11.966-30.106-26.835-40.467-43.615
	c-5.627-9.142-12.839-18.853-19.909-28.947c-14.626-20.984-28.582-43.676-26.369-66.61l11.172-149.657
	C232.43,142.265,346.435,46.299,449.998,46.299c51.781,0,103.381,23.991,143.277,60.863c39.897,36.891,68.095,86.662,73.071,138.199
	l16.251,149.657C683.943,408.931,680.348,422.767,674.436,436.194z"/>
<g>
	<path fill="#E0B394" d="M287.279,424.519c-1.401,23.708,6.317,47.028,21.595,65.21l87.156,107.098
		c4.551,5.425,9.71,9.975,15.296,13.611c-10.481-3.656-20.558-8.898-29.883-15.662l-83.391-60.578
		c-44.061-32.015-67.89-84.955-62.65-139.175l14.444-149.678c9.874-102.08,94.909-180.211,197.152-181.692
		c-62.975,1.524-134.284,60.882-138.002,124.102L287.279,424.519z"/>
	<path fill="#E0B394" d="M674.436,436.194c-0.102-3.372-0.325-6.765-0.65-10.157L659.078,273.76
		c-2.458-25.413-9.487-49.364-20.254-71.1c-14.098,37.967-50.664,65.026-93.528,65.026c-39.571,0-73.741-23.036-89.871-56.454
		c-16.13,33.417-50.319,56.454-89.872,56.454c-17.105,0-33.234-4.328-47.313-11.925v-0.021
		c-21.188-11.417-37.743-30.289-46.216-53.083c-10.767,21.737-17.796,45.688-20.254,71.1l-14.708,152.278
		c-1.158,12.006-0.935,23.931,0.61,35.59c-14.626-20.984-28.582-43.676-26.369-66.61l11.172-149.657
		C232.43,142.263,346.435,46.297,449.998,46.297c51.782,0,103.381,23.991,143.277,60.862
		c39.897,36.891,68.095,86.662,73.071,138.199l16.251,149.657C683.943,408.931,680.348,422.767,674.436,436.194z"/>
</g>
<path fill="#666666" d="M759.92,421.791c-6.581,39.654-39.856,70.247-79.917,73.64c-13.267,1.118-26.004-0.69-37.602-4.876
	c17.39-28.136,25.515-61.573,22.224-95.539l-14.463-149.657c-2.417-24.987-9.325-48.531-19.909-69.882
	c-7.943,21.412-23.179,39.308-42.682,50.645h-0.021c-14.463,8.452-31.284,13.266-49.223,13.266
	c-38.883,0-72.481-22.651-88.328-55.479c-15.845,32.829-49.445,55.479-88.328,55.479c-16.82,0-32.666-4.245-46.5-11.721v-0.021
	c-20.823-11.213-37.095-29.762-45.423-52.168c-10.583,21.351-17.49,44.895-19.909,69.882l-14.463,149.657
	c-3.291,33.966,4.835,67.403,22.224,95.539c-11.6,4.186-24.337,5.992-37.602,4.876c-40.061-3.393-73.336-33.985-79.917-73.64
	c-4.793-28.827,4.896-55.581,22.447-74.635c23.708-25.719,37.542-58.973,37.542-93.934v-3.514
	c0-116.585,80.06-214.522,188.173-242.007C407.971,2.681,428.649,0,449.94,0h0.121C587.957,0.041,699.93,111.832,699.93,249.706
	v3.514c0,34.961,13.834,68.216,37.541,93.934C755.022,366.21,764.714,392.964,759.92,421.791z"/>
<path fill="#5E5E5E" d="M315.172,227.651c-20.823-11.213-37.095-29.762-45.423-52.168c-10.583,21.351-17.49,44.895-19.909,69.882
	l-14.463,149.657c-3.291,33.966,4.835,67.403,22.224,95.539c-11.6,4.186-24.337,5.992-37.602,4.876
	c-40.061-3.393-73.336-33.985-79.917-73.64c-4.794-28.826,4.896-55.58,22.447-74.635c23.708-25.719,37.542-58.973,37.542-93.934
	v-3.514c0-116.585,80.06-214.521,188.173-242.007C386.13,9.452,259.692,114.926,315.172,227.651z"/>
<path fill="#4D4D4D" d="M358.842,407.473c-8.415,0-15.237-6.822-15.237-15.237v-24.368c0-8.415,6.822-15.237,15.237-15.237
	c8.414,0,15.236,6.822,15.236,15.237v24.368C374.078,400.651,367.256,407.473,358.842,407.473z"/>
<g>
	<path fill="#666666" d="M574.541,321.144c-3.12,0-6.238-1.19-8.62-3.572c-7-7.003-16.311-10.858-26.215-10.858
		c-9.901,0-19.211,3.854-26.212,10.858c-4.762,4.76-12.48,4.762-17.237,0c-4.762-4.76-4.762-12.477-0.002-17.237
		c11.608-11.608,27.039-17.998,43.453-17.998c16.416,0,31.847,6.393,43.455,17.998c4.761,4.76,4.761,12.477-0.002,17.237
		C580.781,319.955,577.659,321.144,574.541,321.144z"/>
	<path fill="#666666" d="M393.675,321.144c-3.12,0-6.239-1.19-8.621-3.57c-14.454-14.454-37.974-14.456-52.43,0
		c-4.761,4.76-12.479,4.76-17.237,0c-4.76-4.76-4.76-12.477,0-17.237c23.961-23.961,62.943-23.959,86.906,0
		c4.76,4.76,4.76,12.477,0,17.237C399.913,319.955,396.793,321.144,393.675,321.144z"/>
</g>
<g>
	<path fill="#4D4D4D" d="M539.71,407.473c-8.416,0-15.236-6.822-15.236-15.237v-24.368c0-8.415,6.82-15.237,15.236-15.237
		s15.236,6.822,15.236,15.237v24.368C554.946,400.651,548.125,407.473,539.71,407.473z"/>
	<path fill="#4D4D4D" d="M393.917,501.438c11.746,2.673,20.995,4.784,29.971,5.922c8.877,1.197,17.112,1.777,25.387,1.773
		c8.273-0.031,16.502-0.61,25.37-1.814c8.967-1.141,18.213-3.235,29.986-5.883c-2.745,11.824-10.837,21.364-20.814,28.049
		c-10.062,6.646-22.318,10.131-34.542,10.113c-12.225-0.016-24.473-3.498-34.527-10.153
		C404.778,522.76,396.69,513.233,393.917,501.438z"/>
</g>
<path fill="#E0B394" d="M433.169,455.21l26.446-7.045c8.146-2.169,12.988-10.533,10.819-18.679l-18.021-67.639"/>
<path fill="#8381B5" d="M336.757,838.564c19.547,1.883,38.355,4.188,57.16,5.56c18.773,1.465,37.426,2.231,56.083,2.223
	c18.657-0.018,37.308-0.784,56.078-2.249c18.805-1.378,37.611-3.672,57.167-5.533c-16.947,9.995-35.569,16.686-54.668,21.31
	c-19.132,4.541-38.858,6.798-58.577,6.782c-19.719-0.011-39.44-2.268-58.572-6.809C372.331,855.215,353.711,848.535,336.757,838.564
	z"/>
<path fill="#5E5E5E" d="M587.551,226.122c-14.464,8.452-31.284,13.266-49.223,13.266c-38.883,0-72.481-22.651-88.328-55.479v-29.946
	C450.002,153.963,494.592,235.283,587.551,226.122z"/>
</svg>
