<?xml version="1.0" encoding="iso-8859-1"?>
<!-- Generator: Adobe Illustrator 19.0.0, SVG Export Plug-In . SVG Version: 6.00 Build 0)  -->
<svg version="1.1" id="Capa_1" xmlns="http://www.w3.org/2000/svg" xmlns:xlink="http://www.w3.org/1999/xlink" x="0px" y="0px"
	 viewBox="0 0 512 512" style="enable-background:new 0 0 512 512;" xml:space="preserve">
<path style="fill:#CCD6DD;" d="M256,0C114.6,0,0,114.6,0,256s114.6,256,256,256s256-114.6,256-256S397.4,0,256,0z M42.7,270.2
	c-7.9,0-14.2-6.4-14.2-14.2c0-7.9,6.4-14.2,14.2-14.2c7.9,0,14.2,6.4,14.2,14.2C56.9,263.9,50.5,270.2,42.7,270.2z M312.9,42.7
	c15.7,0,28.4,12.7,28.4,28.4s-12.7,28.4-28.4,28.4s-28.4-12.7-28.4-28.4C284.4,55.4,297.2,42.7,312.9,42.7z M142.2,355.6
	c-15.7,0-28.4-12.7-28.4-28.4c0-15.7,12.7-28.4,28.4-28.4s28.4,12.7,28.4,28.4C170.7,342.8,157.9,355.6,142.2,355.6z M149.3,170.7
	c-27.5,0-49.8-22.3-49.8-49.8s22.3-49.8,49.8-49.8s49.8,22.3,49.8,49.8C199.1,148.4,176.8,170.7,149.3,170.7z M213.3,455.1
	c-7.9,0-14.2-6.4-14.2-14.2c0-7.9,6.4-14.2,14.2-14.2c7.9,0,14.2,6.4,14.2,14.2C227.6,448.8,221.2,455.1,213.3,455.1z M241.8,241.8
	c0-23.6,19.1-42.7,42.7-42.7s42.7,19.1,42.7,42.7s-19.1,42.7-42.7,42.7C260.9,284.5,241.8,265.3,241.8,241.8z M348.4,455.1
	c-27.5,0-49.8-22.3-49.8-49.8s22.3-49.8,49.8-49.8s49.8,22.3,49.8,49.8C398.2,432.8,376,455.1,348.4,455.1z M483.6,270.2
	c0,15.7-12.7,28.4-28.4,28.4c-15.7,0-28.4-12.7-28.4-28.4c0-15.7,12.7-28.4,28.4-28.4C470.8,241.8,483.6,254.5,483.6,270.2z
	 M426.7,142.2c-7.9,0-14.2-6.4-14.2-14.2c0-7.9,6.4-14.2,14.2-14.2c7.9,0,14.2,6.4,14.2,14.2C440.9,135.9,434.5,142.2,426.7,142.2z"
	/>
<g>
	<path style="fill:#B8C5CD;" d="M149.3,71.1c-27.5,0-49.8,22.3-49.8,49.8s22.3,49.8,49.8,49.8s49.8-22.3,49.8-49.8
		S176.8,71.1,149.3,71.1z"/>
	<circle style="fill:#B8C5CD;" cx="284.4" cy="241.8" r="42.7"/>
	<path style="fill:#B8C5CD;" d="M348.4,355.6c-27.5,0-49.8,22.3-49.8,49.8s22.3,49.8,49.8,49.8s49.8-22.3,49.8-49.8
		C398.2,377.8,376,355.6,348.4,355.6z"/>
	<path style="fill:#B8C5CD;" d="M312.9,99.6c15.7,0,28.4-12.7,28.4-28.4s-12.7-28.4-28.4-28.4s-28.4,12.7-28.4,28.4
		C284.4,86.8,297.2,99.6,312.9,99.6z"/>
	<path style="fill:#B8C5CD;" d="M42.7,241.8c-7.9,0-14.2,6.4-14.2,14.2c0,7.9,6.4,14.2,14.2,14.2c7.9,0,14.2-6.4,14.2-14.2
		C56.9,248.1,50.5,241.8,42.7,241.8z"/>
	<path style="fill:#B8C5CD;" d="M426.7,113.8c-7.9,0-14.2,6.4-14.2,14.2c0,7.9,6.4,14.2,14.2,14.2c7.9,0,14.2-6.4,14.2-14.2
		C440.9,120.1,434.5,113.8,426.7,113.8z"/>
	<path style="fill:#B8C5CD;" d="M213.3,426.7c-7.9,0-14.2,6.4-14.2,14.2c0,7.9,6.4,14.2,14.2,14.2c7.9,0,14.2-6.4,14.2-14.2
		C227.6,433,221.2,426.7,213.3,426.7z"/>
	<path style="fill:#B8C5CD;" d="M426.7,270.2c0,15.7,12.7,28.4,28.4,28.4c15.7,0,28.4-12.7,28.4-28.4c0-15.7-12.7-28.4-28.4-28.4
		C439.4,241.8,426.7,254.5,426.7,270.2z"/>
	<path style="fill:#B8C5CD;" d="M142.2,298.7c-15.7,0-28.4,12.7-28.4,28.4c0,15.7,12.7,28.4,28.4,28.4s28.4-12.7,28.4-28.4
		C170.7,311.4,157.9,298.7,142.2,298.7z"/>
</g>
<g>
</g>
<g>
</g>
<g>
</g>
<g>
</g>
<g>
</g>
<g>
</g>
<g>
</g>
<g>
</g>
<g>
</g>
<g>
</g>
<g>
</g>
<g>
</g>
<g>
</g>
<g>
</g>
<g>
</g>
</svg>
