<?xml version="1.0" encoding="iso-8859-1"?>
<!-- Generator: Adobe Illustrator 21.0.0, SVG Export Plug-In . SVG Version: 6.00 Build 0)  -->
<svg version="1.1" id="Capa_1" xmlns="http://www.w3.org/2000/svg" xmlns:xlink="http://www.w3.org/1999/xlink" x="0px" y="0px"
	 viewBox="0 0 512 512" style="enable-background:new 0 0 512 512;" xml:space="preserve">
<g>
	<path style="fill:#4FBA6F;" d="M211.115,226.133c-8.704-13.995-17.835-28.501-26.624-42.667h37.376c0,0-40.021-64-64-102.4h29.867
		l-51.2-76.8l-51.2,76.8H115.2l-64,102.4h37.291l-26.624,42.667"/>
	<path style="fill:#71C285;" d="M110.933,157.867c-3.101-0.003-5.955-1.688-7.457-4.4c-1.502-2.713-1.414-6.026,0.229-8.656
		l21.333-34.133c2.498-4.006,7.77-5.228,11.776-2.731c4.006,2.498,5.228,7.77,2.731,11.776l-21.333,34.133
		C116.645,156.364,113.891,157.881,110.933,157.867z"/>
	<path style="fill:#4FBA6F;" d="M467.115,226.133c-8.704-13.995-17.835-28.501-26.624-42.667h37.376c0,0-40.021-64-64-102.4h29.867
		l-51.2-76.8l-51.2,76.8H371.2l-64,102.4h37.291l-26.624,42.667"/>
	<path style="fill:#71C285;" d="M366.933,157.867c-3.101-0.003-5.955-1.688-7.457-4.4c-1.502-2.713-1.414-6.026,0.229-8.656
		l21.333-34.133c1.616-2.591,4.491-4.124,7.543-4.02c3.052,0.104,5.817,1.828,7.253,4.523c1.436,2.695,1.326,5.952-0.29,8.543
		l-21.333,34.133C372.645,156.364,369.891,157.881,366.933,157.867z"/>
	<path style="fill:#D1D4D1;" d="M392.533,251.733v-36.975c0.596-11.928-8.555-22.097-20.48-22.758H270.37
		c-7.079,0.122-13.568,3.973-17.067,10.129l-14.37,24.004L392.533,251.733z"/>
	<path style="fill:#BDC3C7;" d="M503.467,413.867v42.667c0,4.713-3.821,8.533-8.533,8.533H47.957
		c-3.244,0.023-6.22-1.796-7.68-4.693L25.6,430.933L503.467,413.867z"/>
	<path style="fill:#E4C05C;" d="M503.467,397.397v33.536H25.6L8.533,396.8V251.733c0-14.139,11.462-25.6,25.6-25.6h447.488
		c8.706-0.009,16.024,6.536,16.981,15.189l4.779,42.667c0.52,4.824-1.032,9.642-4.271,13.255s-7.859,5.681-12.711,5.689h-8.533
		v59.136c-0.019,5.7,2.837,11.026,7.595,14.165l10.411,6.997C500.63,386.371,503.485,391.697,503.467,397.397z"/>
	<g>
		<circle style="fill:#35495E;" cx="170.667" cy="465.067" r="34.133"/>
		<circle style="fill:#35495E;" cx="426.667" cy="465.067" r="34.133"/>
	</g>
	<g>
		<path style="fill:#2FA8CC;" d="M59.733,277.333h51.2c9.426,0,17.067,7.641,17.067,17.067v34.133
			c0,9.426-7.641,17.067-17.067,17.067h-51.2c-9.426,0-17.067-7.641-17.067-17.067V294.4
			C42.667,284.974,50.308,277.333,59.733,277.333z"/>
		<path style="fill:#2FA8CC;" d="M179.2,277.333h25.6c9.426,0,17.067,7.641,17.067,17.067v34.133
			c0,9.426-7.641,17.067-17.067,17.067h-25.6c-9.426,0-17.067-7.641-17.067-17.067V294.4
			C162.133,284.974,169.774,277.333,179.2,277.333z"/>
		<path style="fill:#2FA8CC;" d="M435.2,302.933h42.667V371.2H435.2c-9.426,0-17.067-7.641-17.067-17.067V320
			C418.133,310.574,425.774,302.933,435.2,302.933z"/>
	</g>
	<g>
		<path style="fill:#F9EAB0;" d="M366.933,260.267h-25.6c-4.713,0-8.533,3.82-8.533,8.533s3.82,8.533,8.533,8.533h25.6
			c4.713,0,8.533-3.82,8.533-8.533S371.646,260.267,366.933,260.267z"/>
		<path style="fill:#F9EAB0;" d="M460.8,260.267h-59.733c-4.713,0-8.533,3.82-8.533,8.533s3.82,8.533,8.533,8.533H460.8
			c4.713,0,8.533-3.82,8.533-8.533S465.513,260.267,460.8,260.267z"/>
	</g>
	<path style="fill:#B19046;" d="M401.067,388.267c0,4.713-3.82,8.533-8.533,8.533h-384v-17.067h384
		C397.246,379.733,401.067,383.554,401.067,388.267z"/>
	<path style="fill:#7F5B53;" d="M503.467,507.733H8.533C3.821,507.733,0,503.913,0,499.2c0-4.713,3.821-8.533,8.533-8.533h494.933
		c4.713,0,8.533,3.821,8.533,8.533C512,503.913,508.18,507.733,503.467,507.733z"/>
	<path style="fill:#CB8252;" d="M264.533,430.933v-102.4c0-18.851,15.282-34.133,34.133-34.133
		c18.851,0,34.133,15.282,34.133,34.133v102.4"/>
</g>
<g>
</g>
<g>
</g>
<g>
</g>
<g>
</g>
<g>
</g>
<g>
</g>
<g>
</g>
<g>
</g>
<g>
</g>
<g>
</g>
<g>
</g>
<g>
</g>
<g>
</g>
<g>
</g>
<g>
</g>
</svg>
