<?xml version="1.0" encoding="utf-8"?>
<!-- Generator: Adobe Illustrator 16.0.4, SVG Export Plug-In . SVG Version: 6.00 Build 0)  -->
<!DOCTYPE svg PUBLIC "-//W3C//DTD SVG 1.1//EN" "http://www.w3.org/Graphics/SVG/1.1/DTD/svg11.dtd">
<svg version="1.1" id="Capa_1" xmlns="http://www.w3.org/2000/svg" xmlns:xlink="http://www.w3.org/1999/xlink" x="0px" y="0px"
	 width="870.024px" height="540px" viewBox="15 337.5 870.024 540" enable-background="new 15 337.5 870.024 540"
	 xml:space="preserve">
<path fill="#D1D4D1" d="M689.999,442.499v-64.995c1.048-20.967-15.038-38.842-36-40.004H475.26
	c-12.443,0.214-23.85,6.984-30.001,17.805l-25.26,42.195L689.999,442.499z"/>
<path fill="#BDC3C7" d="M885.001,727.501v75c0,8.285-6.717,15-15,15H84.299c-5.702,0.04-10.934-3.157-13.5-8.25L45,757.499
	L885.001,727.501z"/>
<path fill="#E4C05C" d="M885.001,698.55v58.949H45L15,697.5V442.499c0-24.854,20.148-45,45-45h786.6
	c15.304-0.016,28.167,11.489,29.85,26.7l8.4,75c0.914,8.479-1.814,16.949-7.508,23.3c-5.693,6.352-13.814,9.986-22.344,10h-14.999
	v103.95c-0.033,10.02,4.986,19.382,13.351,24.899l18.301,12.3C880.014,679.168,885.032,688.53,885.001,698.55z"/>
<g>
	<circle fill="#35495E" cx="300.001" cy="817.5" r="60"/>
	<circle fill="#35495E" cx="750.001" cy="817.5" r="60"/>
</g>
<g>
	<path fill="#2FA8CC" d="M105,487.499h90c16.569,0,30,13.432,30,30.001v59.999c0,16.569-13.432,30.001-30,30.001h-90
		c-16.569,0-30-13.432-30-30.001V517.5C75,500.931,88.432,487.499,105,487.499z"/>
	<path fill="#2FA8CC" d="M315,487.499h45c16.569,0,30.001,13.432,30.001,30.001v59.999c0,16.569-13.432,30.001-30.001,30.001h-45
		c-16.569,0-30-13.432-30-30.001V517.5C285,500.931,298.431,487.499,315,487.499z"/>
	<path fill="#2FA8CC" d="M765,532.499h75.001V652.5H765c-16.569,0-30.001-13.432-30.001-30.001V562.5
		C734.999,545.931,748.431,532.499,765,532.499z"/>
</g>
<g>
	<path fill="#F9EAB0" d="M644.999,457.501h-45c-8.284,0-14.999,6.715-14.999,14.999s6.715,14.999,14.999,14.999h45
		c8.285,0,15-6.715,15-14.999S653.284,457.501,644.999,457.501z"/>
	<path fill="#F9EAB0" d="M810,457.501H705.001c-8.285,0-15,6.715-15,14.999s6.715,14.999,15,14.999H810
		c8.284,0,14.999-6.715,14.999-14.999S818.284,457.501,810,457.501z"/>
</g>
<path fill="#B19046" d="M705.001,682.501c0,8.284-6.715,14.999-15,14.999h-675v-30.001h675
	C698.284,667.499,705.001,674.216,705.001,682.501z"/>
<path fill="#CB8252" d="M464.999,757.499v-180c0-33.136,26.863-59.999,60-59.999s59.999,26.863,59.999,59.999v180"/>
</svg>
