<?xml version="1.0" encoding="iso-8859-1"?>
<!-- Generator: Adobe Illustrator 19.0.0, SVG Export Plug-In . SVG Version: 6.00 Build 0)  -->
<svg version="1.1" id="Layer_1" xmlns="http://www.w3.org/2000/svg" xmlns:xlink="http://www.w3.org/1999/xlink" x="0px" y="0px"
	 viewBox="0 0 512 512" style="enable-background:new 0 0 512 512;" xml:space="preserve">
<circle style="fill:#FF7700;" cx="256" cy="256" r="256"/>
<circle style="fill:#EB550C;" cx="256" cy="256" r="227.868"/>
<rect x="139.568" y="214.579" style="fill:#FFAD66;" width="232.864" height="87.951"/>
<g>
	<rect x="176.015" y="214.579" style="fill:#FF9233;" width="16.879" height="87.951"/>
	<polygon style="fill:#FF9233;" points="128.315,302.531 145.194,302.531 145.194,214.578 128.315,225.83 	"/>
	<rect x="223.716" y="214.579" style="fill:#FF9233;" width="16.879" height="87.951"/>
	<rect x="271.405" y="214.579" style="fill:#FF9233;" width="16.879" height="87.951"/>
	<rect x="319.105" y="214.579" style="fill:#FF9233;" width="16.879" height="87.951"/>
	<polygon style="fill:#FF9233;" points="366.806,214.578 366.806,302.531 383.685,302.531 383.685,225.83 	"/>
</g>
<g>
	<rect x="128.315" y="192.073" style="fill:#FF7700;" width="255.37" height="33.758"/>
	<rect x="144.699" y="161.668" style="fill:#FF7700;" width="222.602" height="30.405"/>
</g>
<g>
	<polygon style="fill:#FF9233;" points="390.699,305.907 121.301,305.907 111.274,333.832 400.726,333.832 	"/>
	<path style="fill:#FF9233;" d="M440.703,234.269c-4.067,0-7.648-2.946-8.32-7.09c-6.167-38.039-24.123-72.411-51.926-99.402
		c-3.344-3.246-3.423-8.589-0.177-11.934c3.246-3.344,8.59-3.423,11.934-0.177c30.427,29.538,50.078,67.165,56.83,108.813
		c0.746,4.601-2.379,8.936-6.98,9.682C441.606,234.233,441.152,234.269,440.703,234.269z"/>
	<path style="fill:#FF9233;" d="M359.609,108.589c-1.608,0-3.233-0.459-4.671-1.417c-8.947-5.961-18.476-11.133-28.323-15.374
		c-4.281-1.844-6.258-6.809-4.413-11.09c1.844-4.282,6.811-6.254,11.09-4.413c10.781,4.643,21.214,10.305,31.006,16.83
		c3.879,2.584,4.929,7.824,2.344,11.703C365.013,107.269,362.336,108.589,359.609,108.589z"/>
	<path style="fill:#FF9233;" d="M71.297,234.269c-0.449,0-0.904-0.036-1.36-0.11c-4.6-0.746-7.726-5.081-6.98-9.682
		c7.346-45.319,30.677-86.839,65.695-116.909c35.4-30.399,80.627-47.14,127.348-47.14c14.559,0,29.079,1.608,43.158,4.779
		c4.547,1.025,7.403,5.541,6.378,10.088c-1.025,4.547-5.537,7.403-10.088,6.378c-12.862-2.898-26.134-4.367-39.448-4.367
		c-88.126,0-162.305,63.03-176.382,149.872C78.947,231.323,75.364,234.269,71.297,234.269z"/>
	<path style="fill:#FF9233;" d="M256,451.572c-2.618,0-5.09-1.216-6.686-3.29l-25.772-33.471l-37.181,20.069
		c-2.308,1.246-5.064,1.347-7.456,0.277c-2.393-1.071-4.152-3.195-4.761-5.745l-9.802-41.096l-42.131,3.126
		c-4.643,0.35-8.696-3.144-9.04-7.793c-0.344-4.647,3.144-8.696,7.793-9.04l49.297-3.657c4.124-0.299,7.872,2.429,8.833,6.458
		l8.921,37.399l33.829-18.261c3.64-1.965,8.171-1.002,10.696,2.278l23.465,30.475l23.466-30.476
		c2.525-3.279,7.054-4.243,10.696-2.278l33.829,18.26l8.922-37.401c0.961-4.028,4.706-6.762,8.833-6.458l49.299,3.653
		c4.649,0.344,8.137,4.392,7.793,9.04c-0.344,4.649-4.394,8.148-9.04,7.793l-42.134-3.121l-9.803,41.098
		c-0.609,2.551-2.368,4.673-4.761,5.745c-2.393,1.07-5.148,0.969-7.456-0.277l-37.181-20.069l-25.774,33.472
		C261.089,450.355,258.619,451.572,256,451.572z"/>
</g>
<g>
	<path style="fill:#FF7700;" d="M407.746,344.522H104.254c-4.661,0-8.44-3.779-8.44-8.44s3.779-8.44,8.44-8.44h303.49
		c4.661,0,8.44,3.779,8.44,8.44S412.406,344.522,407.746,344.522z"/>
	<path style="fill:#FF7700;" d="M397.717,310.971H114.283c-4.661,0-8.44-3.779-8.44-8.44c0-4.661,3.779-8.44,8.44-8.44h283.434
		c4.661,0,8.44,3.779,8.44,8.44C406.157,307.192,402.379,310.971,397.717,310.971z"/>
</g>
<path style="fill:#FF9233;" d="M389.696,200.512H122.304c-4.661,0-8.44-3.779-8.44-8.44s3.779-8.44,8.44-8.44h267.392
	c4.661,0,8.44,3.779,8.44,8.44S394.357,200.512,389.696,200.512z"/>
<g>
</g>
<g>
</g>
<g>
</g>
<g>
</g>
<g>
</g>
<g>
</g>
<g>
</g>
<g>
</g>
<g>
</g>
<g>
</g>
<g>
</g>
<g>
</g>
<g>
</g>
<g>
</g>
<g>
</g>
</svg>
