<?xml version="1.0" encoding="utf-8"?>
<!-- Generator: Adobe Illustrator 16.0.4, SVG Export Plug-In . SVG Version: 6.00 Build 0)  -->
<!DOCTYPE svg PUBLIC "-//W3C//DTD SVG 1.1//EN" "http://www.w3.org/Graphics/SVG/1.1/DTD/svg11.dtd">
<svg version="1.1" id="Capa_1" xmlns="http://www.w3.org/2000/svg" xmlns:xlink="http://www.w3.org/1999/xlink" x="0px" y="0px"
	 width="900px" height="456.931px" viewBox="0 221.534 900 456.931" enable-background="new 0 221.534 900 456.931"
	 xml:space="preserve">
<path fill="#C0BCC1" d="M402.175,510.39l25.826,144.004c2.498,13.931,14.618,24.069,28.771,24.069h49.84
	c12.846,0,24.186-8.387,27.949-20.67l49.997-163.237L402.175,510.39z"/>
<path fill="#9C969E" d="M402.175,510.39l25.826,144.004c2.498,13.931,14.618,24.069,28.771,24.069h19.391l6.089-171.726
	L402.175,510.39z"/>
<path fill="#C0BCC1" d="M299.642,263.762c0,0,54.048-45.677,105.274-42.019c38.364,2.741,81.539,33.163,169.899,31.666
	c71.857-1.218,148.869-17.218,199.738,2.436C828.143,276.55,900,332.573,900,415.392c0,58.246-37.139,190.768-52.214,242.16
	c-3.653,12.451-15.049,20.911-28.023,20.911H751.72c-15.286,0-27.991-11.779-29.146-27.022l-7.087-93.553
	c0,0-245.716,67.595-379.992-80.383C201.219,329.526,299.642,263.762,299.642,263.762z"/>
<path fill="#9C969E" d="M715.486,557.89l7.087,93.552c1.155,15.244,13.86,27.023,29.146,27.023h24.054l16.442-164.419
	C760.243,541.446,715.486,557.89,715.486,557.89z"/>
<g>
	<path fill="#AEA8AF" d="M463.403,504.25c-35.538-14.601-72.932-36.371-111.711-67.55c7.121-47.556-7.471-105.386-59.556-134.64
		c-3.486-1.958-5.004-6.207-3.08-9.71c5.421-9.877,14.078-30.727,7.984-55.306c-1.291-5.205-7.663-7.302-11.718-3.795
		c-9.938,8.592-26.872,23.676-38.737,36.601c-15.63,17.026-28.447,43.39-30.122,83.9c-0.348,8.425-2.849,16.622-6.697,24.126
		L141.843,510.39c0,0,1.826,48.869,62.722,49.935c37.921,0.664,103.586-34.391,132.298-81.34
		c40.994,44.485,92.144,69.146,143.464,81.991l1.021-28.791C481.783,520.012,474.667,508.878,463.403,504.25z"/>
	<path fill="#AEA8AF" d="M801.013,480.256l-0.201-0.375c-6.568-12.252-22.287-15.838-33.735-7.952
		c-33.404,23.012-94.094,55.494-172.642,57.542c-12.427,0.323-23.229,8.684-26.87,20.57l-6.923,22.598
		c85.304,4.372,191.152-9.042,231.571-58.597c2.404-2.947,4.79-6.047,7.119-9.207C804.607,497.681,805.212,488.088,801.013,480.256z
		"/>
</g>
<path fill="#C9C6CA" d="M0.325,355.634c12.474,40.422,47.746,115.034,143.673,157.581c6.592,2.923,14.537,0.752,18.833-5.04
	c12.282-16.554,17.392-35.446,19.517-48.301c1.383-8.364-4.542-15.935-12.871-17.522c-75.498-14.399-130.957-64.272-157.709-93.28
	C6.91,343.802-1.788,348.783,0.325,355.634z"/>
<path fill="#DBD9DC" d="M137.633,356.101c12.15,11.023,33.959,25.254,68.098,29.15c7.85,0.896,13.693,7.849,13.347,15.743
	c-0.575,13.118-5.541,31.564-27.016,40.799c-4.927,2.118-10.585,1.655-15.056-1.31c-14.096-9.352-45.469-34.791-50.938-78.787
	C125.292,355.44,132.964,351.865,137.633,356.101z"/>
<circle fill="#4B3F4E" cx="256.939" cy="444.619" r="14.614"/>
<path fill="#DBD9DC" d="M182.349,459.874c1.383-8.364-4.542-15.934-12.869-17.522c-75.498-14.399-130.959-64.272-157.711-93.28
	c-3.017-3.27-7.502-2.584-9.972,0.039c28.458,43.4,81.934,102.931,173.282,136.531C178.857,476.152,181.162,467.055,182.349,459.874
	z"/>
<path fill="#C9C6CA" d="M131.521,354.679c-3.205,0.665-5.926,3.209-5.453,7.017c5.471,43.996,36.842,69.436,50.938,78.787
	c4.47,2.965,10.128,3.428,15.056,1.308c10.282-4.419,16.705-10.971,20.748-18.02C190.533,416.326,152.206,397.754,131.521,354.679z"
	/>
<circle fill="#867E88" cx="192.762" cy="536.43" r="10.276"/>
</svg>
