<?xml version="1.0" encoding="utf-8"?>
<!-- Generator: Adobe Illustrator 16.0.4, SVG Export Plug-In . SVG Version: 6.00 Build 0)  -->
<!DOCTYPE svg PUBLIC "-//W3C//DTD SVG 1.1//EN" "http://www.w3.org/Graphics/SVG/1.1/DTD/svg11.dtd">
<svg version="1.1" id="Layer_1" xmlns="http://www.w3.org/2000/svg" xmlns:xlink="http://www.w3.org/1999/xlink" x="0px" y="0px"
	 width="352.219px" height="839.597px" viewBox="273.901 45.045 352.219 839.597"
	 enable-background="new 273.901 45.045 352.219 839.597" xml:space="preserve">
<rect x="434.651" fill="#616C7C" width="30.718" height="65.529"/>
<g>
	<rect x="273.901" y="323.55" fill="#DCEBEF" width="352.219" height="561.093"/>
	<polyline fill="#DCEBEF" points="306.765,323.543 306.765,167.912 593.249,167.912 593.249,323.543 	"/>
	<polyline fill="#DCEBEF" points="348.478,167.912 348.478,45.045 551.535,45.045 551.535,167.912 	"/>
</g>
<g>
	<rect x="313.484" y="370.648" fill="#616C7C" width="24.574" height="464.848"/>
	<rect x="363.185" y="370.648" fill="#616C7C" width="24.574" height="464.848"/>
	<rect x="412.885" y="370.648" fill="#616C7C" width="24.574" height="464.848"/>
	<rect x="462.563" y="370.648" fill="#616C7C" width="24.574" height="464.848"/>
	<rect x="512.264" y="370.648" fill="#616C7C" width="24.574" height="464.848"/>
	<rect x="561.963" y="370.648" fill="#616C7C" width="24.573" height="464.848"/>
	<rect x="353.068" y="207.501" fill="#616C7C" width="24.574" height="111.946"/>
	<rect x="409.507" y="207.501" fill="#616C7C" width="24.573" height="111.946"/>
	<rect x="465.942" y="207.501" fill="#616C7C" width="24.574" height="111.946"/>
	<rect x="522.359" y="207.501" fill="#616C7C" width="24.574" height="111.946"/>
	<rect x="381.287" y="96.574" fill="#616C7C" width="24.573" height="71.338"/>
	<rect x="437.725" y="96.574" fill="#616C7C" width="24.574" height="71.338"/>
	<rect x="494.141" y="96.574" fill="#616C7C" width="24.574" height="71.338"/>
</g>
<rect x="164.346" y="869.284" fill="#515C6D" width="571.311" height="30.718"/>
</svg>
