<?xml version="1.0" encoding="iso-8859-1"?>
<!-- Generator: Adobe Illustrator 19.0.0, SVG Export Plug-In . SVG Version: 6.00 Build 0)  -->
<svg version="1.1" id="Layer_1" xmlns="http://www.w3.org/2000/svg" xmlns:xlink="http://www.w3.org/1999/xlink" x="0px" y="0px"
	 viewBox="0 0 512.003 512.003" style="enable-background:new 0 0 512.003 512.003;" xml:space="preserve">
<rect x="247.27" style="fill:#616C7C;" width="17.475" height="37.279"/>
<g>
	<rect x="155.82" y="184.065" style="fill:#DCEBEF;" width="200.375" height="319.201"/>
	<polyline style="fill:#DCEBEF;" points="174.516,184.061 174.516,95.524 337.495,95.524 337.495,184.061 	"/>
	<polyline style="fill:#DCEBEF;" points="198.246,95.524 198.246,25.626 313.764,25.626 313.764,95.524 	"/>
</g>
<g>
	<rect x="178.339" y="210.859" style="fill:#616C7C;" width="13.98" height="264.448"/>
	<rect x="206.613" y="210.859" style="fill:#616C7C;" width="13.98" height="264.448"/>
	<rect x="234.887" y="210.859" style="fill:#616C7C;" width="13.98" height="264.448"/>
	<rect x="263.149" y="210.859" style="fill:#616C7C;" width="13.98" height="264.448"/>
	<rect x="291.423" y="210.859" style="fill:#616C7C;" width="13.98" height="264.448"/>
	<rect x="319.696" y="210.859" style="fill:#616C7C;" width="13.98" height="264.448"/>
	<rect x="200.858" y="118.046" style="fill:#616C7C;" width="13.98" height="63.685"/>
	<rect x="232.965" y="118.046" style="fill:#616C7C;" width="13.98" height="63.685"/>
	<rect x="265.071" y="118.046" style="fill:#616C7C;" width="13.98" height="63.685"/>
	<rect x="297.166" y="118.046" style="fill:#616C7C;" width="13.98" height="63.685"/>
	<rect x="216.911" y="54.94" style="fill:#616C7C;" width="13.98" height="40.584"/>
	<rect x="249.018" y="54.94" style="fill:#616C7C;" width="13.98" height="40.584"/>
	<rect x="281.113" y="54.94" style="fill:#616C7C;" width="13.98" height="40.584"/>
</g>
<rect x="93.495" y="494.529" style="fill:#515C6D;" width="325.014" height="17.475"/>
<g>
</g>
<g>
</g>
<g>
</g>
<g>
</g>
<g>
</g>
<g>
</g>
<g>
</g>
<g>
</g>
<g>
</g>
<g>
</g>
<g>
</g>
<g>
</g>
<g>
</g>
<g>
</g>
<g>
</g>
</svg>
