<?xml version="1.0" encoding="utf-8"?>
<!-- Generator: Adobe Illustrator 16.0.4, SVG Export Plug-In . SVG Version: 6.00 Build 0)  -->
<!DOCTYPE svg PUBLIC "-//W3C//DTD SVG 1.1//EN" "http://www.w3.org/Graphics/SVG/1.1/DTD/svg11.dtd">
<svg version="1.1" id="Layer_1" xmlns="http://www.w3.org/2000/svg" xmlns:xlink="http://www.w3.org/1999/xlink" x="0px" y="0px"
	 width="22.5px" height="22.5px" viewBox="0 0 22.5 22.5" enable-background="new 0 0 22.5 22.5" xml:space="preserve">
<g id="use9090" transform="translate(70.5,82)">
	<path id="path9472" opacity="0.2" fill="#744EC6" enable-background="new    " d="M-59.25-82l3.186,8.055L-48-70.75l-8.064,3.195
		L-59.25-59.5l-3.186-8.055L-70.5-70.75l8.064-3.195L-59.25-82z"/>
	<path id="path9474" opacity="0.3" fill="#744EC6" enable-background="new    " d="M-53.193-70.75c0,3.33-2.713,6.075-6.057,6.075
		s-6.057-2.745-6.057-6.075s2.713-6.075,6.057-6.075S-53.193-74.08-53.193-70.75z"/>
	<path id="path9476" fill="#744EC6" d="M-63.557-70.75c0,2.385,1.931,4.32,4.307,4.32s4.307-1.936,4.307-4.32
		s-1.931-4.32-4.307-4.32S-63.557-73.135-63.557-70.75z"/>
</g>
</svg>
