<?xml version="1.0" encoding="utf-8"?>
<!-- Generator: Adobe Illustrator 16.0.4, SVG Export Plug-In . SVG Version: 6.00 Build 0)  -->
<!DOCTYPE svg PUBLIC "-//W3C//DTD SVG 1.1//EN" "http://www.w3.org/Graphics/SVG/1.1/DTD/svg11.dtd">
<svg version="1.1" id="Layer_1" xmlns="http://www.w3.org/2000/svg" xmlns:xlink="http://www.w3.org/1999/xlink" x="0px" y="0px"
	 width="300.137px" height="512px" viewBox="0 0 300.137 512" enable-background="new 0 0 300.137 512" xml:space="preserve">
<g id="surface1">
	<path fill="#41769E" d="M300.137,17.656C300.137,7.902,292.234,0,282.48,0H17.656C7.902,0,0,7.902,0,17.656
		c0,9.75,7.902,17.652,17.656,17.652H282.48C292.234,35.312,300.137,27.406,300.137,17.656z"/>
	<path fill="#B3977F" d="M52.965,211.863h194.207v35.309H52.965V211.863z"/>
	<path fill="#41769E" d="M8.828,282.48h291.309c0-19.5-15.809-35.309-35.309-35.309H35.312C15.809,247.172,0,262.98,0,282.48H8.828z
		"/>
	<path fill="#B3977F" d="M97.102,422.223V512h105.934v-89.777C169.066,435.992,131.07,435.992,97.102,422.223z"/>
	<path fill="#EEC9A9" d="M79.449,79.449c0,9.75-7.906,17.652-17.656,17.652s-17.656-7.902-17.656-17.652s7.906-17.656,17.656-17.656
		S79.449,69.699,79.449,79.449z"/>
	<path fill="#EEC9A9" d="M35.312,211.863H150.07V35.312H17.656v158.895C17.656,203.957,25.559,211.863,35.312,211.863z
		 M61.793,61.793c9.75,0,17.656,7.906,17.656,17.656s-7.906,17.652-17.656,17.652s-17.656-7.902-17.656-17.652
		S52.043,61.793,61.793,61.793z"/>
	<path fill="#F1D4BA" d="M264.828,211.863c9.75,0,17.652-7.906,17.652-17.656V35.312H150.07v176.551H264.828z"/>
	<path fill="#F1D4BA" d="M150.07,282.48v150.07c18.156,0.047,36.152-3.461,52.965-10.328c53.383-21.535,88.32-73.348,88.273-130.914
		v-8.828H150.07z"/>
	<path fill="#EEC9A9" d="M8.828,282.48v8.828c-0.047,57.566,34.891,109.379,88.277,130.914
		c16.809,6.867,34.805,10.375,52.965,10.328V282.48H8.828z"/>
	<path fill="#1A6FB0" d="M61.793,105.93c-14.625,0-26.48-11.855-26.48-26.48c0-14.629,11.855-26.484,26.48-26.484
		S88.277,64.82,88.277,79.449C88.277,94.074,76.418,105.93,61.793,105.93z M61.793,70.621c-4.875,0-8.828,3.953-8.828,8.828
		s3.953,8.828,8.828,8.828s8.828-3.953,8.828-8.828S66.668,70.621,61.793,70.621z"/>
	<path fill="#1A6FB0" d="M114.758,88.277H79.449c-4.875,0-8.828-3.953-8.828-8.828s3.953-8.828,8.828-8.828h35.309
		c4.875,0,8.828,3.953,8.828,8.828S119.633,88.277,114.758,88.277z"/>
</g>
</svg>
