<?xml version="1.0" encoding="utf-8"?>
<!-- Generator: Adobe Illustrator 16.0.4, SVG Export Plug-In . SVG Version: 6.00 Build 0)  -->
<!DOCTYPE svg PUBLIC "-//W3C//DTD SVG 1.1//EN" "http://www.w3.org/Graphics/SVG/1.1/DTD/svg11.dtd">
<svg version="1.1" id="Layer_1" xmlns="http://www.w3.org/2000/svg" xmlns:xlink="http://www.w3.org/1999/xlink" x="0px" y="0px"
	 width="900.001px" height="606.364px" viewBox="-0.001 146.817 900.001 606.364"
	 enable-background="new -0.001 146.817 900.001 606.364" xml:space="preserve">
<path fill="#D9D9DB" d="M126.68,351.581l-2.236-3.902c-3.321-5.793-10.103-8.652-16.578-6.982
	c-17.174,4.432-37.615,2.99-53.35-3.776c-5.426-2.334-11.719-1.22-16.022,2.827l-1.635,1.538c-2.708,2.549-4.363,6.026-4.63,9.738
	c-0.128,1.802-3.11,44.703,2.397,94.458c7.671,69.312,27.631,116.177,59.321,139.292c2.591,1.889,5.659,2.848,8.744,2.848
	c2.422,0,4.852-0.592,7.066-1.791c5.031-2.727,8.045-8.105,7.741-13.821c-3.544-67.126-4.182-182.322,9.187-205.68
	C129.299,361.757,129.297,356.146,126.68,351.581z"/>
<path fill="#ADACB2" d="M126.68,351.581l-2.236-3.902c-3.321-5.793-10.103-8.652-16.578-6.982c-3.758,0.969-7.673,1.642-11.66,2.053
	c-0.039,6.409-6.804,19.612-9.074,23.574c-13.224,23.105-12.739,136.067-9.299,203.481c4.983,5.764,10.352,10.761,16.114,14.964
	c2.591,1.888,5.659,2.848,8.744,2.848c2.422,0,4.852-0.593,7.066-1.791c5.031-2.727,8.045-8.105,7.741-13.822
	c-3.544-67.125-4.182-182.321,9.187-205.679C129.299,361.757,129.297,356.146,126.68,351.581z"/>
<path fill="#B79274" d="M899.673,646.522c-1.576-16.831-10.31-48.656-51.12-72.7c-47.836-28.185-120.969-10.416-148.985-1.932
	c-72.546-107.412-299.875-313.85-396.539-385.099c-61.646-45.434-126.363-44.01-169.797-34.812
	c-42.975,9.099-80.476,34.125-105.593,70.473c-17.239,24.947-26.52,51.578-27.589,79.15c-0.999,25.738,12.79,47.709,37.826,60.279
	c18.703,9.392,41.31,12.712,62.237,10.355c2.308,23.697,8.525,78.625,21.111,135.578c22.15,100.248,52.11,155.316,91.427,167.962
	c19.281,30.15,47.417,51.69,83.204,63.229c29.396,9.477,56.655,14.175,80.621,14.175c31.698-0.002,57.637-8.225,75.107-24.497
	c9.659-8.991,16.051-19.912,18.932-31.779h404.491c3.591,0,7.064-1.303,9.77-3.672C895.76,683.624,901.468,665.725,899.673,646.522z
	"/>
<g>
	<path fill="#89684D" d="M156.389,616.673c11.999,24.262,25.398,41.287,40.305,51.263
		c-59.927-204.015-46.314-358.733-46.314-358.733s-10.009,54.761-50.267,63.037c2.308,23.697,8.525,78.625,21.111,135.579
		c0.166,0.757,0.338,1.486,0.506,2.237C127.648,535.633,141.335,576.424,156.389,616.673z"/>
	<path fill="#89684D" d="M848.553,573.824c-31.999-18.853-75.303-17.137-108.861-11.4c0.172,0.056,0.334,0.112,0.508,0.168
		c14.128,1.644,49.609,17.136,61.275,24.01c53.549,31.546,49.43,81.953,33.982,95.475l-13.945,14.832h53.496
		c3.591,0,7.064-1.303,9.77-3.672c10.986-9.612,16.69-27.51,14.897-46.712C898.097,629.693,889.363,597.866,848.553,573.824z"/>
</g>
<path d="M105.224,252.822c-9.429,0-17.1-7.657-17.1-17.07s7.671-17.07,17.1-17.07c9.429,0,17.098,7.657,17.098,17.07
	C122.324,245.165,114.653,252.822,105.224,252.822z"/>
<path fill="#614B35" d="M24.945,261.033c-2.338-1-8.251-2.897-15.386-4.809c-5.724,14.743-8.909,29.913-9.508,45.381
	c-0.596,15.365,4.115,29.37,13.305,40.848c6.639-2.628,12.697-5.189,13.799-5.901c19.287-12.433,28.431-26.246,27.177-41.057
	C52.462,273.401,27.756,262.231,24.945,261.033z"/>
<path fill="#89684D" d="M520.729,669.682c0,0-12.086-46.008-98.834-54.428c-86.746-8.421-98.835-32.326-98.835-32.326
	c23.429,56.632,56.08,64.689,83.316,66.563c5.256,6.954,8.086,12.892,9.324,17.908c0.233,0.731,0.453,1.487,0.648,2.282
	c7.511,30.628-12.607,61.249-60.631,67.573c-28.049,0.244-59.723-3.767-82.509-7.414c7.17,3.527,14.709,6.607,22.647,9.165
	c29.396,9.477,56.654,14.175,80.62,14.175c31.699-0.002,57.638-8.225,75.108-24.497c9.659-8.991,16.05-19.912,18.932-31.779h55.389
	C525.587,689.898,524.497,677.243,520.729,669.682z"/>
</svg>
